<svg width="164" height="404" viewBox="0 0 164 404" fill="none" xmlns="http://www.w3.org/2000/svg">
<path d="M5 392L65.4296 388.589L73 371L57.1606 375.451L17.5897 387.886L5 392Z" fill="#7AB2FF" stroke="#7AB2FF" stroke-width="0.89" stroke-miterlimit="10"/>
<path d="M5 392L60.8807 379.874L73 371L52.6389 371.208L20.0238 385.491L5 392Z" fill="#2573D5" stroke="#2573D5" stroke-width="0.89" stroke-miterlimit="10"/>
<path d="M76 403L5 391.538L65.3681 388L76 403Z" fill="#C0D7FF" stroke="#C0D7FF" stroke-width="0.89" stroke-miterlimit="10"/>
<path d="M5 392L53.276 356L61 379.623L5 392Z" fill="#C0D7FF" stroke="#C0D7FF" stroke-width="0.89" stroke-miterlimit="10"/>
<path d="M82.5 368C82.5 368 118 355.5 143 323.5C161.883 299.33 163.433 262.657 162.5 232C160.5 166.32 154.745 133.476 118 79C90.0455 37.556 16.5 1 16.5 1" stroke="#0062D1" stroke-dasharray="5 5"/>
</svg>
