<svg width="460" height="457" viewBox="0 0 460 457" fill="none" xmlns="http://www.w3.org/2000/svg">
<path d="M0 22.4773H281.999V267.98H0V22.4773Z" fill="#F0F0F0"/>
<path d="M0 0.110596H281.999V31.4978H0V0.110596Z" fill="url(#paint0_linear)"/>
<path d="M26.0742 47.2634H257.622V238.542H26.0742V47.2634Z" fill="white"/>
<path d="M34.986 59.6133H199.714V149.255H34.986V59.6133Z" fill="#F0F0F0"/>
<path d="M158.333 203.165H192.514V207.59H158.333V203.165Z" fill="#F0F0F0"/>
<path d="M66.4896 203.165H141.325V207.59H66.4896V203.165Z" fill="#F0F0F0"/>
<path d="M42.1897 203.165H57.741V207.59H42.1897V203.165Z" fill="#F0F0F0"/>
<path d="M42.1897 210.169H93.7014V214.598H42.1897V210.169Z" fill="#F0F0F0"/>
<path d="M180.202 210.169H192.514V214.598H180.202V210.169Z" fill="#F0F0F0"/>
<path d="M105.853 210.169H173.885V214.598H105.853V210.169Z" fill="#F0F0F0"/>
<path d="M151.53 217.181H192.514V221.608H151.53V217.181Z" fill="#F0F0F0"/>
<path d="M42.1898 217.181H143.268V221.608H42.1898V217.181Z" fill="#F0F0F0"/>
<path d="M158.333 164.706H192.514V169.133H158.333V164.706Z" fill="#F0F0F0"/>
<path d="M66.4896 164.706H141.325V169.133H66.4896V164.706Z" fill="#F0F0F0"/>
<path d="M42.1897 164.706H57.741V169.133H42.1897V164.706Z" fill="#F0F0F0"/>
<path d="M42.1897 171.712H93.7014V176.139H42.1897V171.712Z" fill="#F0F0F0"/>
<path d="M180.202 171.712H192.514V176.139H180.202V171.712Z" fill="#F0F0F0"/>
<path d="M105.853 171.712H173.885V176.139H105.853V171.712Z" fill="#F0F0F0"/>
<path d="M151.53 178.719H192.514V183.146H151.53V178.719Z" fill="#F0F0F0"/>
<path d="M42.1898 178.719H143.268V183.146H42.1898V178.719Z" fill="#F0F0F0"/>
<path d="M210.937 60.1746H247.182V67.0581H210.937V60.1746Z" fill="#F0F0F0"/>
<path d="M210.937 79.4937H247.182V86.3772H210.937V79.4937Z" fill="#F0F0F0"/>
<path d="M210.937 98.8101H247.182V105.694H210.937V98.8101Z" fill="#F0F0F0"/>
<path d="M210.937 118.132H247.182V125.013H210.937V118.132Z" fill="#F0F0F0"/>
<path d="M210.937 137.448H247.182V144.332H210.937V137.448Z" fill="#F0F0F0"/>
<path d="M210.937 156.767H247.182V163.651H210.937V156.767Z" fill="#F0F0F0"/>
<path d="M210.937 176.086H247.182V182.967H210.937V176.086Z" fill="#F0F0F0"/>
<path d="M210.937 195.406H247.182V202.287H210.937V195.406Z" fill="#F0F0F0"/>
<path d="M210.937 214.725H247.182V221.606H210.937V214.725Z" fill="#F0F0F0"/>
<path d="M15.6396 25.3469C13.7881 25.3469 12.2871 23.846 12.2871 21.9945C12.2871 20.143 13.7881 18.6421 15.6396 18.6421C17.4911 18.6421 18.9919 20.143 18.9919 21.9945C18.9919 23.846 17.4911 25.3469 15.6396 25.3469Z" fill="white"/>
<path d="M29.0466 25.3469C27.1951 25.3469 25.6941 23.846 25.6941 21.9945C25.6941 20.143 27.1951 18.6421 29.0466 18.6421C30.8981 18.6421 32.3989 20.143 32.3989 21.9945C32.3989 23.846 30.8981 25.3469 29.0466 25.3469Z" fill="white"/>
<path d="M131.469 74.9487H101.786C86.4382 74.9487 74.5965 88.8063 74.521 104.146C74.5965 119.484 86.4382 132.836 101.786 132.836H131.469C146.867 132.836 159.466 119.29 159.466 103.892C159.466 88.4943 146.867 74.9487 131.469 74.9487Z" fill="url(#paint1_linear)"/>
<path d="M74.5129 104.292C74.5129 104.242 74.5205 104.194 74.5205 104.144C74.5205 104.093 74.5129 104.045 74.5129 103.998V104.292Z" fill="#FF4746"/>
<path d="M107.232 120.906L134.751 105.017L107.232 89.1335V120.906Z" fill="white"/>
<path d="M380.181 230.563C380.193 231.525 376.088 232.453 375.182 232.164C373.217 230.805 374.017 229.66 371.986 228.653C373.876 229.27 376.005 229.516 378.004 229.531C379.106 229.466 380.289 229.081 380.181 230.563Z" fill="#FCD2C5"/>
<path d="M370.469 227.856C372.495 228.862 374.556 230.111 376.524 231.47C378.865 233.056 383.692 237.181 384.027 237.473C384.961 238.364 387.591 240.301 388.091 241.19C388.414 241.756 388.645 243.654 388.323 244.389C387.898 245.363 386.727 245.244 386.727 245.244C386.435 246.593 383.244 245.224 383.247 245.569C383.254 246.984 381.321 247.419 377.622 244.099C377.4 243.903 366.693 237.546 363.442 235.233C364.703 233.113 370.348 227.81 370.469 227.856Z" fill="#FCD2C5"/>
<path d="M294.26 118.432C297.637 116.167 320.223 111.093 320.721 113.048C323.462 123.835 322.982 159.753 326.042 176.988C329.797 198.132 313.707 193.201 310.501 187.169C302.064 171.275 286.475 123.657 294.26 118.432Z" fill="#FCD2C5"/>
<path d="M321.003 177.109C321.793 177.438 322.468 177.851 322.961 178.284C332.009 186.222 360.384 221.42 371.126 228.19C368.241 231.15 366.039 233.802 364.771 236.108C347.329 224.619 307.126 191.107 309.567 183.126C311.804 175.817 317.517 175.649 321.003 177.109Z" fill="#FCD2C5"/>
<path d="M293.334 116.426C296.824 114.161 317.452 109.454 321.232 111.103C322.096 111.48 322.71 112.19 322.914 113.043C324.225 118.553 324.62 130.1 325.033 142.324C325.453 154.614 325.884 167.321 327.228 175.594C327.462 177.021 327.608 178.367 327.678 179.674C331.119 183.376 335.578 188.518 340.282 193.944C350.551 205.793 363.334 220.539 369.344 224.453L360.324 236.161C345.512 226.094 313.317 198.965 307.251 186.618C300.776 173.897 282.919 123.199 293.334 116.426Z" fill="#53D6F2"/>
<path d="M364.275 148.643C352.043 132.566 348.479 108.759 356.548 90.1501C364.71 71.3268 377.611 57.6403 397.706 57.5044V58.8911L377.41 105.704C375.895 109.2 376.919 112.945 380.415 114.46L418.804 131.136C422.303 132.654 426.694 131.225 428.21 127.729L448.634 80.6214C448.775 80.2967 448.402 79.7656 448.49 79.4359C462.26 94.2172 461.55 113.242 453.365 132.128C445.296 150.735 425.934 164.608 405.84 166.666L286.601 441.664C281.474 453.488 267.387 459.456 255.563 454.329L255.198 454.17C243.367 449.041 239.911 435.465 245.038 423.639L364.275 148.643ZM260.169 443.207C264.747 445.19 270.073 443.089 272.059 438.511C274.042 433.932 271.938 428.607 267.362 426.624C262.782 424.635 257.458 426.739 255.473 431.32C253.487 435.898 255.591 441.221 260.169 443.207Z" fill="url(#paint2_linear)"/>
<path d="M125.243 425.957C127.047 424.202 128.119 424.23 128.119 424.23L136.191 428.169C136.191 428.169 135.086 430.993 134.537 433.051C133.478 437.018 138.881 448.729 135.229 451.276C133.385 452.562 129.023 449.839 126.69 446.763C124.354 443.69 122.6 440.793 122.416 438.405C122.19 435.425 120.488 430.645 121.153 429.176C122.306 426.623 125.243 425.957 125.243 425.957Z" fill="#4D3782"/>
<path d="M136.717 428.114C136.717 428.114 135.448 429.984 134.535 433.057C134.535 433.057 131.379 433.318 128.336 431.816C126.614 430.968 125.243 425.959 125.243 425.959C127.045 424.203 128.328 423.098 128.328 423.098L136.717 428.114Z" fill="#FCD2C5"/>
<path d="M200.644 198.441C218.876 203.611 243.38 206.485 250.089 205.111C249.707 210.414 232.225 276.453 213.943 340.053C205.192 370.489 135.617 430.17 135.617 430.17C135.428 430.555 128.774 430.273 125.907 425.33C125.907 425.33 178.204 353.017 180.499 332.978C185.679 287.748 189.96 230.128 200.644 198.441Z" fill="#CE61D4"/>
<path d="M274.193 292.334C273.933 295.266 265.739 442.09 265.739 442.09C262.135 445.042 256.421 444.453 256.323 444.163C256.323 444.163 243.11 294.337 243.598 287.584C247.462 290.559 271.771 294.722 274.193 292.334Z" fill="#FCD2C5"/>
<path d="M256.854 442.087L264.704 437.723C264.704 437.723 266.388 440.247 267.762 441.873C270.41 445.012 283.107 447.282 283.107 451.737C283.107 453.984 278.378 456.002 274.522 456.156C270.667 456.312 267.498 455.623 265.22 454.875C262.95 454.133 257.753 452.016 256.93 450.629C255.495 448.223 256.625 445.432 256.625 445.432C256.218 442.95 256.854 442.087 256.854 442.087Z" fill="#4D3782"/>
<path d="M267.76 441.873C267.76 441.873 266.169 444.612 263.197 446.247C261.516 447.171 256.623 445.432 256.623 445.432C256.213 442.95 256.042 441.267 256.042 441.267L264.959 437.255C264.959 437.255 265.767 439.366 267.76 441.873Z" fill="#FCD2C5"/>
<path d="M286.873 181.124C288.275 191.188 266.874 439.216 266.874 439.216C266.769 439.631 259.135 443.781 255.294 439.551C255.294 439.551 251.285 382.376 243.589 328.428C236.939 281.857 237.931 237.692 234.244 234.79V185.432C253.155 186.671 280.601 183.872 286.873 181.124Z" fill="#CE61D4"/>
<path d="M294.292 212.958C294.292 212.958 290.887 225.769 289.362 229.242C285.093 238.955 272.773 241.645 264.531 238.826L264.058 228.288L257.313 237.346C217.972 229.738 194.825 211.743 194.825 211.743C194.047 196.589 205.539 175.798 205.539 175.798L294.292 212.958Z" fill="#0062D1"/>
<path d="M295.409 61.9951C296.348 63.329 306.863 74.8536 310.742 75.5356C310.369 76.5474 304.246 86.5341 304.679 93.1534C301.83 98.2197 286.822 93.2137 285.77 82.6607C288.367 80.6246 294.461 67.2276 295.409 61.9951Z" fill="#FCD2C5"/>
<path d="M269.197 81.593C273.34 81.9604 285.77 82.66 285.77 82.66C285.77 82.66 291.483 92.3725 296.681 94.552C300.252 96.047 304.679 93.1527 304.679 93.1527C304.679 93.1527 316.493 101.576 318.418 103.769C325.888 112.273 324.748 122.101 320.991 129.136C307.908 153.657 301.531 218.163 292.596 219.24C280.407 220.71 216.724 205.081 202.358 182.266C202.358 182.266 226.492 120.823 242.008 97.8868C247.937 89.1182 256.766 80.4881 269.197 81.593Z" fill="#53D6F2"/>
<path d="M331.876 222.213C331.843 223.172 327.701 223.904 326.805 223.567C324.905 222.117 325.763 221.01 323.785 219.91C325.642 220.617 327.754 220.964 329.752 221.075C330.857 221.063 332.055 220.735 331.876 222.213Z" fill="#FCD2C5"/>
<path d="M322.304 219.037C324.277 220.141 326.278 221.488 328.178 222.94C330.439 224.636 335.062 228.988 335.384 229.293C336.275 230.231 338.807 232.293 339.265 233.204C339.56 233.783 339.698 235.69 339.343 236.41C338.87 237.362 337.71 237.188 337.71 237.188C337.35 238.519 334.231 236.999 334.216 237.344C334.156 238.758 332.203 239.101 328.667 235.607C328.455 235.398 318.068 228.532 314.93 226.066C316.294 224.012 322.186 218.986 322.304 219.037Z" fill="#FCD2C5"/>
<path d="M251.453 106.067C254.934 103.968 277.739 99.9912 278.142 101.967C280.359 112.872 278.149 148.727 280.379 166.093C283.11 187.39 267.277 181.69 264.367 175.508C256.706 159.227 243.427 110.914 251.453 106.067Z" fill="#FCD2C5"/>
<path d="M275.341 165.967C276.113 166.334 276.765 166.78 277.241 167.235C285.893 175.601 312.539 212.123 322.944 219.404C319.919 222.22 317.59 224.767 316.214 227.007C299.346 214.69 260.801 179.283 263.625 171.431C266.212 164.235 271.93 164.344 275.341 165.967Z" fill="#FCD2C5"/>
<path d="M249.558 103.515C253.154 101.421 273.984 97.7133 277.681 99.5405C278.524 99.9583 279.103 100.696 279.266 101.562C280.313 107.129 279.621 155.92 280.565 164.245C280.726 165.683 280.812 167.032 280.819 168.345C284.079 172.206 288.284 177.557 292.721 183.202C302.408 195.532 314.467 210.877 320.28 215.075L310.707 226.338C296.396 215.571 265.547 186.922 260.081 174.298C254.226 161.276 238.829 109.779 249.558 103.515Z" fill="#53D6F2"/>
<path d="M307.473 88.3836C310.403 82.3533 311.339 74.1359 310.959 68.6467C311.127 68.5007 323.193 61.1189 325.076 67.0838C325.458 73.8591 324.129 81.4875 320.143 88.6403C314.316 99.0952 314.983 108.435 315.879 112.643C317.364 119.642 315.227 128.054 313.818 131.932C305.585 154.568 288.838 161.98 285.433 158.638C281.693 154.971 298.956 135.717 299.502 113.323C299.875 97.7462 304.624 94.2478 307.473 88.3836Z" fill="#4D3782"/>
<path d="M299.079 58.9194C301.017 51.525 309.031 45.847 316.498 47.8025C323.45 49.6222 328.01 54.2104 327.356 61.1342C327.122 63.6133 319.161 84.0272 307.035 83.4458C301.908 83.2016 295.606 72.173 297.066 66.6007C297.066 66.6007 299.057 58.9949 299.079 58.9194Z" fill="#FCD2C5"/>
<path d="M264.304 91.5872C268.52 88.2977 276.093 80.0552 275.667 66.1397C275.242 52.2191 283.22 41.3968 292.674 35.4672C302.124 29.5375 311.839 32.2255 316.475 36.0234C322.274 40.7751 322.035 42.0637 322.035 42.0637C322.035 42.0637 325.641 42.2903 328.737 45.396C335.429 52.1134 329.487 69.9878 321.531 73.7077C331.496 55.569 320.245 48.8844 320.245 48.8844C320.245 48.8844 311.502 47.2383 305.887 50.9053C300.778 54.2426 293.436 65.1078 293.001 74.941C292.671 82.4487 296.605 89.1006 285.994 103.915C270.747 125.207 280.374 155.502 272.69 156.254C265.696 156.941 248.32 138.07 253.331 111.065C254.186 106.436 257.297 97.0563 264.304 91.5872Z" fill="#4D3782"/>
<path d="M300.31 56.1453C301.02 56.4146 302.24 57.1697 302.99 58.2142C301.47 60.4466 298.488 63.8217 297.018 65.4903C295.46 64.3527 294.35 60.8644 295.02 59.1102C295.729 57.2477 298.453 55.4356 300.31 56.1453Z" fill="#FCD2C5"/>
<defs>
<linearGradient id="paint0_linear" x1="281.998" y1="15.8027" x2="-0.00102309" y2="15.8027" gradientUnits="userSpaceOnUse">
<stop stop-color="#A1D8F6"/>
<stop offset="1" stop-color="#9E90F2"/>
</linearGradient>
<linearGradient id="paint1_linear" x1="74.5207" y1="103.892" x2="159.466" y2="103.892" gradientUnits="userSpaceOnUse">
<stop stop-color="#63D4FF"/>
<stop offset="1" stop-color="#546BE5"/>
</linearGradient>
<linearGradient id="paint2_linear" x1="459.236" y1="256.843" x2="242.735" y2="256.843" gradientUnits="userSpaceOnUse">
<stop stop-color="#A1D8F6"/>
<stop offset="1" stop-color="#9E90F2"/>
</linearGradient>
</defs>
</svg>
