<svg width="251" height="549" viewBox="0 0 251 549" fill="none" xmlns="http://www.w3.org/2000/svg">
<path d="M228.741 72.472H224.688V119.083H228.741V72.472Z" fill="#4D3782"/>
<path d="M242.894 115.585H210.532C206.108 115.585 202.527 119.172 202.527 123.592V155.954C202.527 160.376 206.11 163.961 210.532 163.961H242.894C247.316 163.961 250.899 160.374 250.899 155.954V123.592C250.901 119.172 247.318 115.585 242.894 115.585Z" fill="url(#paint0_linear)"/>
<path d="M108.389 542.416H27.3406V548.713H108.389V542.416Z" fill="#4D3782"/>
<path d="M83.6403 252.37H47.2533C45.5145 252.37 44.104 253.781 44.104 255.522V291.908C44.104 293.645 45.5145 295.056 47.2533 295.056H83.6403C85.3791 295.056 86.7895 293.647 86.7895 291.908V255.522C86.7895 253.783 85.3791 252.37 83.6403 252.37ZM80.491 288.757H50.4026V258.667H80.491V288.757Z" fill="#4D3782"/>
<path d="M45.4204 257.603L81.447 293.629L85.8993 289.177L49.8727 253.15L45.4204 257.603Z" fill="#4D3782"/>
<path d="M83.6403 215.981H47.2533C45.5145 215.981 44.104 217.392 44.104 219.131V255.522C44.104 257.258 45.5145 258.669 47.2533 258.669H83.6403C85.3791 258.669 86.7895 257.26 86.7895 255.522V219.131C86.7895 217.394 85.3791 215.981 83.6403 215.981ZM80.491 252.37H50.4026V222.278H80.491V252.37Z" fill="#4D3782"/>
<path d="M45.4337 253.154L49.886 257.607L85.9126 221.58L81.4603 217.128L45.4337 253.154Z" fill="#4D3782"/>
<path d="M83.6403 325.171H47.2533C45.5145 325.171 44.104 326.579 44.104 328.32V364.707C44.104 366.444 45.5145 367.856 47.2533 367.856H83.6403C85.3791 367.856 86.7895 366.446 86.7895 364.707V328.32C86.7895 326.581 85.3791 325.171 83.6403 325.171ZM80.491 361.557H50.4026V331.467H80.491V361.557Z" fill="#4D3782"/>
<path d="M45.3954 330.401L81.4221 366.428L85.8744 361.976L49.8477 325.949L45.3954 330.401Z" fill="#4D3782"/>
<path d="M83.6403 288.781H47.2533C45.5145 288.781 44.104 290.19 44.104 291.929V328.32C44.104 330.057 45.5145 331.469 47.2533 331.469H83.6403C85.3791 331.469 86.7895 330.059 86.7895 328.32V291.929C86.7895 290.19 85.3791 288.781 83.6403 288.781ZM80.491 325.171H50.4026V295.078H80.491V325.171Z" fill="#4D3782"/>
<path d="M45.4337 325.953L49.886 330.405L85.9126 294.379L81.4603 289.926L45.4337 325.953Z" fill="#4D3782"/>
<path d="M83.6403 180.697H47.2533C45.5145 180.697 44.104 182.107 44.104 183.848V219.131C44.104 220.867 45.5145 222.28 47.2533 222.28H83.6403C85.3791 222.28 86.7895 220.869 86.7895 219.131V183.848C86.7895 182.107 85.3791 180.697 83.6403 180.697ZM80.491 215.981H50.4026V186.993H80.491V215.981Z" fill="#4D3782"/>
<path d="M45.4216 185.555L81.4482 221.582L85.9005 217.129L49.8739 181.103L45.4216 185.555Z" fill="#4D3782"/>
<path d="M83.6403 144.31H47.2533C45.5145 144.31 44.104 145.72 44.104 147.461V183.848C44.104 185.585 45.5145 186.995 47.2533 186.995H83.6403C85.3791 186.995 86.7895 185.587 86.7895 183.848V147.461C86.7895 145.72 85.3791 144.31 83.6403 144.31ZM80.491 180.697H50.4026V150.608H80.491V180.697Z" fill="#4D3782"/>
<path d="M45.3912 181.113L49.8447 185.564L85.8598 149.528L81.4062 145.077L45.3912 181.113Z" fill="#4D3782"/>
<path d="M83.6403 109.027H47.2533C45.5145 109.027 44.104 110.436 44.104 112.177V147.461C44.104 149.198 45.5145 150.608 47.2533 150.608H83.6403C85.3791 150.608 86.7895 149.2 86.7895 147.461V112.177C86.7895 110.436 85.3791 109.027 83.6403 109.027ZM80.491 144.31H50.4026V115.324H80.491V144.31Z" fill="#4D3782"/>
<path d="M45.4228 113.883L81.4495 149.91L85.9018 145.458L49.8751 109.431L45.4228 113.883Z" fill="#4D3782"/>
<path d="M83.6403 72.6402H47.2533C45.5145 72.6402 44.104 74.0486 44.104 75.7895V112.176C44.104 113.913 45.5145 115.326 47.2533 115.326H83.6403C85.3791 115.326 86.7895 113.915 86.7895 112.176V75.7895C86.7895 74.0486 85.3791 72.6402 83.6403 72.6402ZM80.491 109.027H50.4026V78.9367H80.491V109.027Z" fill="#4D3782"/>
<path d="M45.4361 109.43L49.8884 113.883L85.9137 77.8574L81.4613 73.4051L45.4361 109.43Z" fill="#4D3782"/>
<path d="M83.6403 469.618H47.2533C45.5145 469.618 44.104 471.029 44.104 472.767V509.154C44.104 510.893 45.5145 512.306 47.2533 512.306H83.6403C85.3791 512.306 86.7895 510.895 86.7895 509.154V472.767C86.7895 471.029 85.3791 469.618 83.6403 469.618ZM80.491 506.007H50.4026V475.917H80.491V506.007Z" fill="#4D3782"/>
<path d="M45.3908 474.845L81.4175 510.872L85.8698 506.42L49.8431 470.393L45.3908 474.845Z" fill="#4D3782"/>
<path d="M83.6403 433.229H47.2533C45.5145 433.229 44.104 434.64 44.104 436.378V472.767C44.104 474.506 45.5145 475.919 47.2533 475.919H83.6403C85.3791 475.919 86.7895 474.508 86.7895 472.767V436.378C86.7895 434.64 85.3791 433.229 83.6403 433.229ZM80.491 469.618H50.4026V439.526H80.491V469.618Z" fill="#4D3782"/>
<path d="M45.432 470.403L49.8843 474.855L85.911 438.828L81.4587 434.376L45.432 470.403Z" fill="#4D3782"/>
<path d="M83.6403 506.027H47.2533C45.5145 506.027 44.104 507.436 44.104 509.177V545.566C44.104 547.303 45.5145 548.715 47.2533 548.715H83.6403C85.3791 548.715 86.7895 547.305 86.7895 545.566V509.177C86.7895 507.438 85.3791 506.027 83.6403 506.027ZM80.491 542.416H50.4026V512.324H80.491V542.416Z" fill="#4D3782"/>
<path d="M45.4327 543.201L49.885 547.654L85.9117 511.627L81.4594 507.175L45.4327 543.201Z" fill="#4D3782"/>
<path d="M83.6403 397.944H47.2533C45.5145 397.944 44.104 399.353 44.104 401.094V436.376C44.104 438.115 45.5145 439.526 47.2533 439.526H83.6403C85.3791 439.526 86.7895 438.117 86.7895 436.376V401.094C86.7895 399.355 85.3791 397.944 83.6403 397.944ZM80.491 433.229H50.4026V404.243H80.491V433.229Z" fill="#4D3782"/>
<path d="M45.4172 402.801L81.4438 438.828L85.8961 434.375L49.8695 398.349L45.4172 402.801Z" fill="#4D3782"/>
<path d="M83.6403 361.557H47.2533C45.5145 361.557 44.104 362.966 44.104 364.707V401.094C44.104 402.831 45.5145 404.243 47.2533 404.243H83.6403C85.3791 404.243 86.7895 402.833 86.7895 401.094V364.707C86.7895 362.968 85.3791 361.557 83.6403 361.557ZM80.491 397.944H50.4026V367.856H80.491V397.944Z" fill="#4D3782"/>
<path d="M45.3822 398.35L49.8357 402.801L85.8508 366.765L81.3972 362.314L45.3822 398.35Z" fill="#4D3782"/>
<path d="M83.6403 35.2866H47.2533C45.5145 35.2866 44.104 36.695 44.104 38.4338V74.8248C44.104 76.5616 45.5145 77.9721 47.2533 77.9721H83.6403C85.3791 77.9721 86.7895 76.5636 86.7895 74.8248V38.4338C86.7895 36.697 85.3791 35.2866 83.6403 35.2866ZM80.491 71.6735H50.4026V41.5831H80.491V71.6735Z" fill="#4D3782"/>
<path d="M45.4445 40.8664L81.4697 76.8916L85.922 72.4393L49.8968 36.4141L45.4445 40.8664Z" fill="#4D3782"/>
<path d="M83.6403 0H47.2533C45.5145 0 44.104 1.41047 44.104 3.15129V38.4338C44.104 40.1706 45.5145 41.5851 47.2533 41.5851H83.6403C85.3791 41.5851 86.7895 40.1726 86.7895 38.4338V3.15129C86.7895 1.41047 85.3791 0 83.6403 0ZM80.491 35.2866H50.4026V6.29653H80.491V35.2866Z" fill="#4D3782"/>
<path d="M45.4361 36.4172L49.8884 40.8695L85.9151 4.84284L81.4628 0.390522L45.4361 36.4172Z" fill="#4D3782"/>
<path d="M120.028 35.2866H83.6385C81.8997 35.2866 80.4893 36.695 80.4893 38.4338V74.8248C80.4893 76.5616 81.8997 77.9721 83.6385 77.9721H120.028C121.766 77.9721 123.179 76.5636 123.179 74.8248V38.4338C123.179 36.697 121.768 35.2866 120.028 35.2866ZM116.88 71.6735H86.7878V41.5831H116.88V71.6735Z" fill="#4D3782"/>
<path d="M81.4608 72.4413L85.9131 76.8936L121.938 40.8684L117.486 36.4161L81.4608 72.4413Z" fill="#4D3782"/>
<path d="M155.316 35.2866H120.03C118.291 35.2866 116.882 36.695 116.882 38.4338V74.8248C116.882 76.5616 118.291 77.9721 120.03 77.9721H155.316C157.053 77.9721 158.463 76.5636 158.463 74.8248V38.4338C158.461 36.697 157.053 35.2866 155.316 35.2866ZM152.165 71.6735H123.179V41.5831H152.165V71.6735Z" fill="#4D3782"/>
<path d="M117.495 40.8667L153.52 76.8919L157.972 72.4396L121.947 36.4144L117.495 40.8667Z" fill="#4D3782"/>
<path d="M191.703 35.2866H155.316C153.575 35.2866 152.165 36.695 152.165 38.4338V74.8248C152.165 76.5616 153.573 77.9721 155.316 77.9721H191.703C193.442 77.9721 194.852 76.5636 194.852 74.8248V38.4338C194.85 36.697 193.442 35.2866 191.703 35.2866ZM188.554 71.6735H158.461V41.5831H188.554V71.6735Z" fill="#4D3782"/>
<path d="M153.51 72.4411L157.962 76.8934L193.987 40.8682L189.535 36.4159L153.51 72.4411Z" fill="#4D3782"/>
<path d="M47.2535 35.2866H21.1594C9.49245 35.2866 0 44.779 0 56.4459V56.8107C0 68.4796 9.49245 77.9701 21.1594 77.9701H47.2535C48.9923 77.9701 50.4027 76.5616 50.4027 74.8228V38.4318C50.4027 36.6971 48.9923 35.2866 47.2535 35.2866ZM44.1041 71.6735H21.1573C12.9639 71.6735 6.29653 65.0061 6.29653 56.8107V56.4459C6.29653 48.2505 12.9639 41.5831 21.1573 41.5831H44.1041V71.6735Z" fill="#4D3782"/>
<path d="M237.461 71.6736H84.1917V77.9701H237.461V71.6736Z" fill="#4D3782"/>
<path d="M227.322 53.175L193.14 35.6331C192.165 35.1325 190.998 35.171 190.061 35.7506C189.125 36.3201 188.554 37.3395 188.554 38.4358V74.152C188.554 75.8908 189.962 77.3033 191.703 77.3033H225.885C227.624 77.3033 229.034 75.8928 229.034 74.152V55.9778C229.034 54.7963 228.372 53.7161 227.322 53.175ZM222.736 71.0048H194.85V43.5914L222.736 57.901V71.0048Z" fill="#4D3782"/>
<defs>
<linearGradient id="paint0_linear" x1="202.528" y1="139.774" x2="250.9" y2="139.774" gradientUnits="userSpaceOnUse">
<stop stop-color="#A1D8F6"/>
<stop offset="1" stop-color="#9E90F2"/>
</linearGradient>
</defs>
</svg>
