<svg width="184" height="418" viewBox="0 0 184 418" fill="none" xmlns="http://www.w3.org/2000/svg">
<path d="M56.142 12.8071C54.8571 14.2399 55.7022 14.9856 54.3038 16.155C55.6677 15.316 57.2869 14.7222 58.8454 14.3351C59.7208 14.177 60.722 14.2541 60.3552 13.1111C60.1829 12.3592 56.7945 12.4079 56.142 12.8071Z" fill="#FCD2C5"/>
<path d="M62.7079 0.386149C62.2235 -0.612948 59.9842 1.06097 59.9214 0.789414C59.6599 -0.31709 58.065 -0.294776 55.7973 3.00245C55.6595 3.20105 48.4814 10.1988 46.3738 12.6246C47.76 14.0432 53.179 17.1296 53.2641 17.0688C54.6584 15.8975 56.0385 14.5295 57.3213 13.0947C58.8554 11.4127 61.8527 7.2724 62.0635 6.97855C62.6248 6.10307 64.315 4.08867 64.5419 3.30237C64.6858 2.79978 64.5095 1.2677 64.1184 0.752956C63.5996 0.0740569 62.7079 0.386149 62.7079 0.386149Z" fill="#FCD2C5"/>
<path d="M55.1673 18.0942L45.762 10.3C35.6555 21.1219 15.4506 49.0845 12.0176 59.878C3.93164 85.3032 21.277 143.991 21.277 143.991C21.277 143.991 41.2022 101.801 40.576 101.431C31.955 96.3581 30.5445 72.0677 30.123 65.1531C30.048 63.9696 29.9203 62.8367 29.7399 61.7829C31.8415 58.1716 34.4983 53.2126 37.2991 47.982C43.4193 36.5603 51.0351 22.3459 55.1673 18.0942Z" fill="#CE61D4"/>
<path d="M21.3903 281.973C21.3518 284.344 16.0969 398.584 16.0969 398.584C18.7355 401.247 23.3602 401.255 23.4635 401.03C23.4635 401.03 46.1185 286.17 46.2908 280.721C42.9489 282.784 23.1311 284.087 21.3903 281.973Z" fill="#FCD2C5"/>
<path d="M15.426 396.187C17.9592 394.577 22.0367 394.786 24.6712 397.421C24.6712 397.421 32.2283 355.996 42.8941 313.432C52.1008 276.688 54.9907 241.235 58.1845 239.217L62.2985 199.687C47.0506 199.103 25.3015 194.576 20.5086 191.852C18.5449 199.794 15.426 396.187 15.426 396.187Z" fill="#0062D1"/>
<path d="M16.1943 396.444C16.1943 396.444 15.7302 397.056 14.494 398.246C12.1108 400.538 1.3335 405.328 0.962634 408.895C0.774163 410.697 4.39158 412.707 7.46993 413.153C10.5463 413.597 13.27 413.704 15.025 412.902C17.2137 411.903 21.666 407.203 22.4402 406.163C23.7919 404.354 23.7959 399.338 23.7959 399.338C22.0065 395.07 16.1943 396.444 16.1943 396.444Z" fill="url(#paint0_linear)"/>
<path d="M15.9634 400.955C12.8648 403.115 2.86975 406.627 2.55766 409.629C2.39959 411.145 5.44755 412.839 8.03547 413.214C10.6254 413.589 12.9215 413.678 14.4009 413.003C16.241 412.16 20.0044 408.214 20.6428 407.327C24.1447 402.475 18.9709 398.855 15.9634 400.955Z" fill="#4D3782"/>
<path d="M171.079 50.3429C169.879 50.3186 170.238 51.2529 170.335 52.1385C170.406 53.7476 170.296 55.4681 169.877 57.0124C170.602 55.3384 171.557 55.9363 172.568 54.2988C172.765 53.555 171.849 50.2943 171.079 50.3429Z" fill="#FCD2C5"/>
<path d="M183.015 47.2626C182.737 47.2789 183.708 44.6585 182.612 44.4761C182.612 44.4761 182.658 43.5297 181.86 43.2298C181.254 43.0008 179.738 43.2663 179.294 43.5459C178.601 43.9857 177.152 46.1784 176.471 46.9668C176.25 47.2525 173.132 51.3016 171.954 53.2491C170.943 54.8886 170.025 56.597 169.295 58.2689C169.263 58.3682 173.76 62.6909 175.513 63.617C177.239 60.9055 181.913 52.0352 182.063 51.8488C184.584 48.736 184.152 47.1998 183.015 47.2626Z" fill="#FCD2C5"/>
<path d="M131.38 98.5003C131.054 98.9157 130.748 99.473 130.515 100.124C129.481 102.985 129.854 107.577 135.822 109.073C142.342 110.712 167.642 77.0085 176.167 62.5085C174.262 61.5864 172.035 59.9246 169.538 57.7238C164.533 66.6406 137.393 90.8986 131.38 98.5003Z" fill="#FCD2C5"/>
<path d="M130.213 96.0765C116.477 99.244 87.5741 100.332 79.0119 102.977C77.4575 103.455 82.4631 121.413 84.4228 124.035C88.9441 130.08 126.598 115.592 139.033 108.157C143.755 105.332 147.06 92.1916 130.213 96.0765Z" fill="#FCD2C5"/>
<path d="M144.182 82.3486C139.963 86.5213 135.964 90.4752 133.099 93.511C132.023 93.6386 130.922 93.8352 129.757 94.1027C123.011 95.6611 112.553 96.7007 102.441 97.71C92.383 98.7111 81.3626 100.592 73.7893 99.3637C73.0719 99.2482 89.5782 133.777 92.7417 132.425C103.033 128.031 129.787 116.004 139.93 109.979C149.781 104.309 170.412 76.2953 177.912 63.538L167.769 56.7328C164.867 61.9006 153.399 73.2372 144.182 82.3486Z" fill="#CE61D4"/>
<path d="M62.3087 281.945C61.9176 287.382 72.5571 403.971 72.5571 403.971C72.6361 404.206 77.2364 404.678 80.1364 402.301C80.1364 402.301 86.739 288.13 86.9437 285.769C84.9941 287.69 65.4195 284.338 62.3087 281.945Z" fill="#FCD2C5"/>
<path d="M54.7756 199.687V239.43C57.7446 241.766 56.9481 277.33 62.3003 314.828C68.5016 358.269 71.7279 400.252 71.7279 400.252C74.6218 397.905 78.6952 398.12 81.05 399.982C81.05 399.982 98.284 204.321 97.1532 196.217C92.105 198.432 70.0032 200.686 54.7756 199.687Z" fill="#0062D1"/>
<path d="M87.7807 203.989C72.5389 204.761 57.364 205.75 42.0938 204.938C32.6439 204.433 23.7555 202.757 15.5519 199.798C14.5326 213.927 14.2508 227.957 15.4242 239.622C15.7768 240.364 22.0329 242.575 24.3634 243.152C37.3213 246.356 66.3863 242.014 85.5758 240.542C85.5758 240.542 96.4524 239.916 97.9115 239.916C98.6897 228.689 98.6269 215.984 98.104 203.264C94.7481 203.626 91.2989 203.809 87.7807 203.989Z" fill="#7CB1FF"/>
<path d="M65.8473 77.7909C64.7327 78.4921 53.3394 83.7793 50.2489 83.0782C50.2083 83.9496 51.6532 93.2677 49.274 98.0525C49.8151 102.699 62.5156 103.652 66.5809 96.1394C65.2799 93.819 64.9232 81.9737 65.8473 77.7909Z" fill="#FCD2C5"/>
<path d="M55.449 61.7484C49.722 60.9419 44.0537 61.8721 42.3858 67.2181C41.788 69.1332 41.3543 86.7664 50.5407 90.1102C54.4236 91.5227 62.5339 85.291 63.1824 80.6948C63.1824 80.6948 64.0701 74.4287 64.0762 74.3659C64.9374 68.272 61.6037 62.6199 55.449 61.7484Z" fill="#FCD2C5"/>
<path d="M79.2165 100.503C76.0267 99.4873 66.5788 96.1414 66.5788 96.1414C66.5788 96.1414 64.4895 98.6401 58.5213 99.4528C53.159 100.18 49.272 98.0565 49.272 98.0565C49.272 98.0565 40.9165 101.487 34.7517 92.607C29.5576 85.1209 28.0822 113.649 25.9645 119.708C24.3027 124.475 11.4178 191.834 15.4263 231.646C15.7789 232.387 18.7134 233.301 19.7307 233.814L22.0086 209.71L24.3655 235.174C37.5179 237.444 66.3884 234.035 85.5779 232.564L89.554 204.032L92.9323 232.083C94.7805 231.99 96.4545 231.939 97.9136 231.939C100.953 188.131 91.1956 121.828 91.2422 119.761C91.4428 111.239 88.794 103.546 79.2165 100.503Z" fill="#CE61D4"/>
<path d="M81.7659 402.124C80.6574 400.815 80.2581 400.159 80.2581 400.159C80.2581 400.159 74.6222 398.191 72.3971 402.246C72.3971 402.246 71.8844 407.237 73.0395 409.175C73.7022 410.291 77.6438 415.425 79.717 416.649C81.3768 417.628 84.1005 417.802 87.2052 417.678C90.3099 417.555 94.1178 415.929 94.1178 414.12C94.1199 410.535 83.8979 404.654 81.7659 402.124Z" fill="url(#paint1_linear)"/>
<path d="M80.0227 404.67C77.2463 402.27 71.7259 405.334 74.709 410.524C75.2542 411.473 78.5879 415.79 80.3308 416.817C81.7291 417.642 84.0211 417.788 86.6374 417.684C89.2517 417.579 92.4577 416.211 92.4577 414.687C92.4598 411.667 82.8822 407.142 80.0227 404.67Z" fill="#4D3782"/>
<path d="M68.0316 55.6972C59.5585 47.9618 43.8608 53.6585 39.1895 62.5916C35.6998 69.2529 33.2922 64.2615 33.7138 62.4598C32.4755 66.969 34.1069 71.0768 43.0035 71.0768C44.872 71.0768 38.7639 72.4711 38.7639 72.4711C38.7639 72.4711 46.7405 92.7651 61.6905 89.0646C66.1327 87.9642 70.2264 84.0123 70.2264 84.0123C70.2264 84.0123 65.4416 84.442 68.2201 80.7759C73.6168 73.6586 75.5137 62.5247 68.0316 55.6972Z" fill="#53D6F2"/>
<defs>
<linearGradient id="paint0_linear" x1="0.955946" y1="404.863" x2="23.7955" y2="404.863" gradientUnits="userSpaceOnUse">
<stop stop-color="#A1D8F6"/>
<stop offset="1" stop-color="#9E90F2"/>
</linearGradient>
<linearGradient id="paint1_linear" x1="72.2846" y1="408.698" x2="94.1196" y2="408.698" gradientUnits="userSpaceOnUse">
<stop stop-color="#A1D8F6"/>
<stop offset="1" stop-color="#9E90F2"/>
</linearGradient>
</defs>
</svg>
