<svg width="271" height="490" viewBox="0 0 271 490" fill="none" xmlns="http://www.w3.org/2000/svg">
<path fill-rule="evenodd" clip-rule="evenodd" d="M225.51 0.325439H46.258C21.242 0.325439 0.775757 20.7937 0.775757 45.8076V444.228C0.775757 469.246 21.2441 489.715 46.262 489.715H225.514C250.532 489.715 271 469.244 271 444.228V45.8157C271.002 20.7958 250.532 0.325439 225.51 0.325439Z" fill="#4D3782"/>
<path fill-rule="evenodd" clip-rule="evenodd" d="M225.509 10.2982H45.7714C26.2414 10.2982 10.2639 26.2776 10.2639 45.8056V444.463C10.2639 464.263 26.4642 480.461 46.2638 480.461H225.516C245.339 480.461 261.56 464.243 261.56 444.419V46.3487C261.56 26.5208 245.337 10.2982 225.509 10.2982Z" fill="white"/>
<path fill-rule="evenodd" clip-rule="evenodd" d="M68.9817 17.8755C68.9817 31.0401 79.6576 41.712 92.8222 41.712H179.002C192.166 41.712 202.84 31.0401 202.84 17.8755V8.27365H68.9817V17.8755Z" fill="#4D3782"/>
<path d="M247.253 338.746H24.5696V424.352H247.253V338.746Z" fill="#F0F0F0"/>
<path fill-rule="evenodd" clip-rule="evenodd" d="M161.414 23.8964H110.411C108.603 23.8964 107.138 25.3616 107.138 27.1673V27.2342C107.138 29.0439 108.605 30.507 110.411 30.507H161.414C163.223 30.507 164.686 29.0418 164.686 27.2342V27.1673C164.686 25.3616 163.221 23.8964 161.414 23.8964Z" fill="#3A2B62"/>
<path fill-rule="evenodd" clip-rule="evenodd" d="M135.913 10.4887C133.789 10.4887 132.079 12.2072 132.079 14.325C132.079 16.4427 133.789 18.1613 135.913 18.1613C138.031 18.1613 139.743 16.4427 139.743 14.325C139.743 12.2072 138.031 10.4887 135.913 10.4887Z" fill="#3A2B62"/>
<path d="M239.222 376.328H206.859C202.437 376.328 198.852 379.913 198.852 384.335V416.697C198.852 421.119 202.439 424.702 206.859 424.702H239.222C243.643 424.702 247.228 421.117 247.228 416.697V384.335C247.228 379.911 243.643 376.328 239.222 376.328Z" fill="url(#paint0_linear)"/>
<path d="M181.12 376.328H148.758C144.336 376.328 140.751 379.913 140.751 384.335V416.697C140.751 421.119 144.338 424.702 148.758 424.702H181.12C185.542 424.702 189.127 421.117 189.127 416.697V384.335C189.127 379.911 185.542 376.328 181.12 376.328Z" fill="#CE61D4"/>
<path d="M123.018 376.328H90.656C86.234 376.328 82.649 379.913 82.649 384.335V416.697C82.649 421.119 86.236 424.702 90.656 424.702H123.018C127.44 424.702 131.025 421.117 131.025 416.697V384.335C131.025 379.911 127.44 376.328 123.018 376.328Z" fill="url(#paint1_linear)"/>
<path d="M64.9166 376.328H32.5544C28.1324 376.328 24.5474 379.913 24.5474 384.335V416.697C24.5474 421.119 28.1344 424.702 32.5544 424.702H64.9166C69.3385 424.702 72.9235 421.117 72.9235 416.697V384.335C72.9235 379.911 69.3385 376.328 64.9166 376.328Z" fill="#4D3782"/>
<path d="M239.222 79.9614H206.859C202.437 79.9614 198.852 83.5464 198.852 87.9664V120.329C198.852 124.753 202.439 128.334 206.859 128.334H239.222C243.643 128.334 247.228 124.751 247.228 120.329V87.9664C247.228 83.5464 243.643 79.9614 239.222 79.9614Z" fill="url(#paint2_linear)"/>
<path d="M181.12 79.9614H148.758C144.336 79.9614 140.751 83.5464 140.751 87.9664V120.329C140.751 124.753 144.338 128.334 148.758 128.334H181.12C185.542 128.334 189.127 124.751 189.127 120.329V87.9664C189.127 83.5464 185.542 79.9614 181.12 79.9614Z" fill="#4D3782"/>
<path d="M123.018 79.9614H90.656C86.234 79.9614 82.649 83.5464 82.649 87.9664V120.329C82.649 124.753 86.236 128.334 90.656 128.334H123.018C127.44 128.334 131.025 124.751 131.025 120.329V87.9664C131.025 83.5464 127.44 79.9614 123.018 79.9614Z" fill="url(#paint3_linear)"/>
<path d="M64.9166 79.9614H32.5544C28.1324 79.9614 24.5474 83.5464 24.5474 87.9664V120.329C24.5474 124.753 28.1344 128.334 32.5544 128.334H64.9166C69.3385 128.334 72.9235 124.751 72.9235 120.329V87.9664C72.9235 83.5464 69.3385 79.9614 64.9166 79.9614Z" fill="#4D3782"/>
<path d="M123.018 142.613H90.656C86.234 142.613 82.649 146.2 82.649 150.62V182.982C82.649 187.404 86.236 190.989 90.656 190.989H123.018C127.44 190.989 131.025 187.402 131.025 182.982V150.62C131.025 146.198 127.44 142.613 123.018 142.613Z" fill="#CE61D4"/>
<path d="M181.12 142.613H148.758C144.336 142.613 140.751 146.2 140.751 150.62V182.982C140.751 187.404 144.338 190.989 148.758 190.989H181.12C185.542 190.989 189.127 187.402 189.127 182.982V150.62C189.127 146.198 185.542 142.613 181.12 142.613Z" fill="url(#paint4_linear)"/>
<path d="M239.222 142.613H206.859C202.437 142.613 198.852 146.2 198.852 150.62V182.982C198.852 187.404 202.439 190.989 206.859 190.989H239.222C243.643 190.989 247.228 187.402 247.228 182.982V150.62C247.228 146.198 243.643 142.613 239.222 142.613Z" fill="#CE61D4"/>
<path d="M239.222 204.94H206.859C202.437 204.94 198.852 208.525 198.852 212.947V245.307C198.852 249.731 202.439 253.314 206.859 253.314H239.222C243.643 253.314 247.228 249.729 247.228 245.307V212.947C247.228 208.525 243.643 204.94 239.222 204.94Z" fill="url(#paint5_linear)"/>
<path d="M123.018 204.94H90.656C86.234 204.94 82.649 208.525 82.649 212.947V245.307C82.649 249.731 86.236 253.314 90.656 253.314H123.018C127.44 253.314 131.025 249.729 131.025 245.307V212.947C131.025 208.525 127.44 204.94 123.018 204.94Z" fill="url(#paint6_linear)"/>
<path d="M64.9166 204.94H32.5544C28.1324 204.94 24.5474 208.525 24.5474 212.947V245.307C24.5474 249.731 28.1344 253.314 32.5544 253.314H64.9166C69.3385 253.314 72.9235 249.729 72.9235 245.307V212.947C72.9235 208.525 69.3385 204.94 64.9166 204.94Z" fill="#4D3782"/>
<path d="M64.9166 267.591H32.5544C28.1324 267.591 24.5474 271.176 24.5474 275.598V307.96C24.5474 312.382 28.1344 315.965 32.5544 315.965H64.9166C69.3385 315.965 72.9235 312.38 72.9235 307.958V275.6C72.9235 271.176 69.3385 267.591 64.9166 267.591Z" fill="url(#paint7_linear)"/>
<path d="M123.018 267.591H90.656C86.234 267.591 82.649 271.176 82.649 275.598V307.96C82.649 312.382 86.236 315.965 90.656 315.965H123.018C127.44 315.965 131.025 312.38 131.025 307.958V275.6C131.025 271.176 127.44 267.591 123.018 267.591Z" fill="#CE61D4"/>
<defs>
<linearGradient id="paint0_linear" x1="198.852" y1="400.514" x2="247.229" y2="400.514" gradientUnits="userSpaceOnUse">
<stop stop-color="#C66FD7"/>
<stop offset="1" stop-color="#5937E5"/>
</linearGradient>
<linearGradient id="paint1_linear" x1="84.9978" y1="422.359" x2="128.683" y2="378.674" gradientUnits="userSpaceOnUse">
<stop stop-color="#A1D8F6"/>
<stop offset="1" stop-color="#9E90F2"/>
</linearGradient>
<linearGradient id="paint2_linear" x1="198.852" y1="104.148" x2="247.229" y2="104.148" gradientUnits="userSpaceOnUse">
<stop stop-color="#C66FD7"/>
<stop offset="1" stop-color="#5937E5"/>
</linearGradient>
<linearGradient id="paint3_linear" x1="84.9968" y1="125.993" x2="128.681" y2="82.309" gradientUnits="userSpaceOnUse">
<stop stop-color="#A1D8F6"/>
<stop offset="1" stop-color="#9E90F2"/>
</linearGradient>
<linearGradient id="paint4_linear" x1="143.098" y1="188.643" x2="186.783" y2="144.958" gradientUnits="userSpaceOnUse">
<stop stop-color="#A1D8F6"/>
<stop offset="1" stop-color="#9E90F2"/>
</linearGradient>
<linearGradient id="paint5_linear" x1="198.852" y1="229.126" x2="247.229" y2="229.126" gradientUnits="userSpaceOnUse">
<stop stop-color="#C66FD7"/>
<stop offset="1" stop-color="#5937E5"/>
</linearGradient>
<linearGradient id="paint6_linear" x1="84.9968" y1="250.971" x2="128.681" y2="207.287" gradientUnits="userSpaceOnUse">
<stop stop-color="#A1D8F6"/>
<stop offset="1" stop-color="#9E90F2"/>
</linearGradient>
<linearGradient id="paint7_linear" x1="24.5482" y1="291.78" x2="72.9243" y2="291.78" gradientUnits="userSpaceOnUse">
<stop stop-color="#C66FD7"/>
<stop offset="1" stop-color="#5937E5"/>
</linearGradient>
</defs>
</svg>
