<svg width="563" height="482" viewBox="0 0 563 482" fill="none" xmlns="http://www.w3.org/2000/svg">
<path d="M254.209 166.106H174.13V202.714H254.209V166.106Z" fill="#D5DBE0"/>
<path fill-rule="evenodd" clip-rule="evenodd" d="M343.761 5.17029H86.0864C78.836 5.17029 72.9055 11.1072 72.9055 18.3545V158.58C72.9055 165.831 78.8392 171.764 86.0864 171.764H343.761C351.015 171.764 356.945 165.827 356.945 158.58V18.3545C356.948 11.104 351.015 5.17029 343.761 5.17029Z" fill="#F0F0F0"/>
<path d="M348.198 12.8597H81.6553V148.219H348.198V12.8597Z" fill="url(#paint0_linear)"/>
<path fill-rule="evenodd" clip-rule="evenodd" d="M276.825 197.488H146.769C143.965 197.488 141.671 199.782 141.671 202.586C141.671 205.389 143.965 207.683 146.769 207.683H276.825C279.628 207.683 281.922 205.389 281.922 202.586C281.922 199.782 279.628 197.488 276.825 197.488Z" fill="white"/>
<path d="M114.816 12.8597H81.6553V148.337H114.816V12.8597Z" fill="url(#paint1_linear)"/>
<path d="M348.198 12.8597H330.564V148.337H348.198V12.8597Z" fill="url(#paint2_linear)"/>
<path d="M95.727 34.4669H85.2469V43.6461H95.727V34.4669Z" fill="white"/>
<path d="M110.616 34.4669H100.139V43.6461H110.616V34.4669Z" fill="white"/>
<path d="M95.727 47.8497H85.2469V57.0289H95.727V47.8497Z" fill="white"/>
<path d="M110.616 47.8497H100.139V57.0289H110.616V47.8497Z" fill="white"/>
<path d="M95.727 61.2325H85.2469V70.4116H95.727V61.2325Z" fill="white"/>
<path d="M110.616 61.2325H100.139V70.4116H110.616V61.2325Z" fill="white"/>
<path d="M95.727 74.6183H85.2469V83.7976H95.727V74.6183Z" fill="white"/>
<path d="M110.616 74.6183H100.139V83.7976H110.616V74.6183Z" fill="white"/>
<path d="M95.727 87.9948H85.2469V97.1739H95.727V87.9948Z" fill="white"/>
<path d="M110.616 87.9948H100.139V97.1739H110.616V87.9948Z" fill="white"/>
<path d="M95.727 101.381H85.2469V110.56H95.727V101.381Z" fill="white"/>
<path d="M110.616 101.381H100.139V110.56H110.616V101.381Z" fill="white"/>
<path d="M95.727 121.142H85.2469V141.093H95.727V121.142Z" fill="white"/>
<path d="M110.616 121.142H100.139V141.093H110.616V121.142Z" fill="white"/>
<path d="M344.623 128.838H334.146V141.09H344.623V128.838Z" fill="white"/>
<path d="M344.623 106.129H334.146V118.381H344.623V106.129Z" fill="white"/>
<path d="M344.623 83.4228H334.146V95.6745H344.623V83.4228Z" fill="white"/>
<path d="M344.623 60.7134H334.146V72.9652H344.623V60.7134Z" fill="white"/>
<path d="M344.623 38.0041H334.146V50.2559H344.623V38.0041Z" fill="white"/>
<path d="M348.198 12.8597H81.6553V30.5389H348.198V12.8597Z" fill="#D5DBE0"/>
<path d="M123.165 25.7747H97.0789C94.8298 25.7747 93.0067 23.9484 93.0067 21.6993C93.0067 19.4501 94.8298 17.6239 97.0789 17.6239H123.165C125.414 17.6239 127.241 19.4501 127.241 21.6993C127.241 23.9484 125.414 25.7747 123.165 25.7747Z" fill="white"/>
<path d="M162.897 25.7747H136.811C134.562 25.7747 132.735 23.9484 132.735 21.6993C132.735 19.4501 134.562 17.6239 136.811 17.6239H162.897C165.146 17.6239 166.969 19.4501 166.969 21.6993C166.972 23.9484 165.146 25.7747 162.897 25.7747Z" fill="white"/>
<path d="M202.629 25.7747H176.545C174.293 25.7747 172.467 23.9484 172.467 21.6993C172.467 19.4501 174.293 17.6239 176.545 17.6239H202.629C204.881 17.6239 206.704 19.4501 206.704 21.6993C206.704 23.9484 204.881 25.7747 202.629 25.7747Z" fill="white"/>
<path d="M242.36 25.7747H216.274C214.022 25.7747 212.199 23.9484 212.199 21.6993C212.199 19.4501 214.022 17.6239 216.274 17.6239H242.36C244.61 17.6239 246.436 19.4501 246.436 21.6993C246.439 23.9484 244.61 25.7747 242.36 25.7747Z" fill="white"/>
<path d="M282.092 25.7747H256.003C253.754 25.7747 251.931 23.9484 251.931 21.6993C251.931 19.4501 253.754 17.6239 256.003 17.6239H282.092C284.341 17.6239 286.164 19.4501 286.164 21.6993C286.168 23.9484 284.345 25.7747 282.092 25.7747Z" fill="white"/>
<path d="M204.792 131.28H197.33L194.363 123.565H180.788L177.984 131.28H170.708L183.941 97.3116H191.191L204.792 131.28ZM192.165 117.842L187.484 105.238L182.896 117.842H192.165Z" fill="white"/>
<path d="M208.104 131.279V97.3116H214.615V109.544C216.62 107.26 219.001 106.116 221.753 106.116C224.752 106.116 227.228 107.202 229.186 109.374C231.15 111.543 232.13 114.658 232.13 118.723C232.13 122.924 231.131 126.156 229.128 128.428C227.126 130.7 224.697 131.834 221.843 131.834C220.439 131.834 219.052 131.485 217.684 130.78C216.316 130.075 215.137 129.037 214.147 127.662V131.276H208.104V131.279ZM214.567 118.445C214.567 120.992 214.967 122.876 215.771 124.096C216.902 125.827 218.395 126.695 220.266 126.695C221.698 126.695 222.926 126.083 223.938 124.853C224.944 123.625 225.453 121.69 225.453 119.047C225.453 116.237 224.947 114.209 223.925 112.966C222.906 111.723 221.596 111.101 220.007 111.101C218.45 111.101 217.149 111.707 216.114 112.921C215.086 114.132 214.567 115.974 214.567 118.445Z" fill="white"/>
<path d="M258.819 113.95L252.402 115.106C252.187 113.828 251.694 112.86 250.931 112.213C250.169 111.563 249.172 111.239 247.952 111.239C246.331 111.239 245.036 111.8 244.072 112.918C243.107 114.036 242.627 115.91 242.627 118.534C242.627 121.453 243.114 123.516 244.097 124.721C245.078 125.926 246.395 126.528 248.045 126.528C249.281 126.528 250.291 126.179 251.079 125.474C251.867 124.769 252.424 123.561 252.748 121.847L259.143 122.937C258.477 125.871 257.208 128.088 255.321 129.585C253.437 131.084 250.912 131.834 247.747 131.834C244.149 131.834 241.278 130.7 239.138 128.428C236.998 126.156 235.931 123.017 235.931 119.002C235.931 114.936 237.001 111.774 239.147 109.512C241.294 107.25 244.2 106.116 247.862 106.116C250.858 106.116 253.241 106.76 255.007 108.051C256.775 109.342 258.047 111.31 258.819 113.95Z" fill="white"/>
<path d="M263.686 41.6982H166.168V76.7938H263.686V41.6982Z" fill="#D5DBE0"/>
<path d="M186.145 50.8549V57.0705H193.328V50.8549H195.266V65.7147H193.328V58.7462H186.145V65.7147H184.222V50.8549H186.145Z" fill="white"/>
<path d="M201.418 52.489H196.9V50.8549H207.899V52.489H203.363V65.7147H201.421V52.489H201.418Z" fill="white"/>
<path d="M222.07 59.1915C221.958 57.1218 221.827 54.626 221.852 52.7773H221.785C221.279 54.517 220.66 56.3689 219.914 58.4194L217.29 65.625H215.835L213.432 58.5508C212.724 56.4586 212.132 54.5395 211.712 52.7773H211.667C211.622 54.626 211.513 57.1186 211.382 59.3453L210.985 65.7147H209.155L210.19 50.8549H212.638L215.175 58.0414C215.79 59.8708 216.3 61.5015 216.675 63.0458H216.742C217.114 61.5496 217.645 59.9157 218.305 58.0414L220.949 50.8549H223.397L224.322 65.7147H222.451L222.07 59.1915Z" fill="white"/>
<path d="M227.27 50.8549H229.186V64.1032H235.536V65.7147H227.27V50.8549Z" fill="white"/>
<path d="M245.542 53.0177H240.073L239.522 56.6989C239.855 56.6509 240.159 56.6124 240.691 56.6124C241.793 56.6124 242.895 56.8528 243.777 57.3814C244.904 58.019 245.827 59.2556 245.827 61.0594C245.827 63.8596 243.603 65.9518 240.492 65.9518C238.929 65.9518 237.606 65.5129 236.923 65.0708L237.407 63.5969C238.003 63.9493 239.172 64.3883 240.473 64.3883C242.3 64.3883 243.866 63.1996 243.866 61.2805C243.844 59.4286 242.607 58.1054 239.743 58.1054C238.929 58.1054 238.291 58.192 237.76 58.2625L238.686 51.3869H245.545V53.0177H245.542Z" fill="white"/>
<path d="M51.5231 235.016H44.0804V481.999H51.5231V235.016Z" fill="#0079DB"/>
<path d="M147.493 235.016H140.047V481.999H147.493V235.016Z" fill="#0079DB"/>
<path d="M410.771 235.016H403.329V481.999H410.771V235.016Z" fill="#0079DB"/>
<path d="M506.735 235.016H499.289V481.999H506.735V235.016Z" fill="#0079DB"/>
<path d="M163.968 207.683H0.840332V235.298H163.968V207.683Z" fill="#0079DB"/>
<path d="M562.16 207.683H163.968V235.298H562.16V207.683Z" fill="url(#paint3_linear)"/>
<path d="M488.258 73.2339H429.162V205.876H488.258V73.2339Z" fill="#F0F0F0"/>
<path d="M482.891 85.2838H434.528V105.494H482.891V85.2838Z" fill="#D5DBE0"/>
<path d="M482.891 110.467H434.528V122.385H482.891V110.467Z" fill="#D5DBE0"/>
<path d="M429.162 73.2339H338.526V205.876H429.162V73.2339Z" fill="url(#paint4_linear)"/>
<path d="M458.708 184C465.232 184 470.521 178.711 470.521 172.187C470.521 165.663 465.232 160.374 458.708 160.374C452.184 160.374 446.895 165.663 446.895 172.187C446.895 178.711 452.184 184 458.708 184Z" fill="url(#paint5_linear)"/>
<path d="M258.941 450.309C260.405 455.025 260.248 458.409 260.248 458.409C264.423 462.622 272.263 462.772 272.427 462.42C272.427 462.42 273.641 456.996 272.702 449.585C271.943 449.649 264.346 445.324 258.941 450.309Z" fill="#FCD2C5"/>
<path d="M193.143 337.028C229.068 401.799 258.586 455.839 258.586 455.839C260.851 451.671 267.98 448.832 273.641 450.453C273.641 450.453 252.796 389.579 231.785 327.904C217.925 287.24 178.494 310.609 193.143 337.028Z" fill="url(#paint6_linear)"/>
<path d="M260.037 455.224C260.037 455.224 259.672 455.99 257.714 457.87C253.947 461.494 236.911 469.068 236.325 474.707C236.027 477.555 241.749 480.734 246.613 481.438C251.476 482.14 255.782 482.31 258.56 481.044C262.014 479.462 268.922 471.926 270.28 470.388C273.641 466.582 272.427 459.597 272.427 459.597C269.591 452.856 260.037 455.224 260.037 455.224Z" fill="#4D3782"/>
<path d="M260.037 462.157C255.139 465.573 239.337 471.125 238.844 475.87C238.594 478.267 243.412 480.945 247.507 481.538C251.602 482.134 255.232 482.275 257.567 481.205C260.476 479.872 266.429 473.634 267.438 472.23C272.978 464.56 264.798 458.841 260.037 462.157Z" fill="#3A2B62"/>
<path d="M352.688 451.655C354.008 458.921 356.129 466.021 356.129 466.021C356.292 466.377 366.747 462.622 370.921 458.409C370.921 458.409 367.717 453.455 365.401 448.851C359.996 443.869 353.444 451.719 352.688 451.655Z" fill="#FCD2C5"/>
<path d="M289.491 346.64C325.416 411.411 352.053 456.067 352.053 456.067C354.325 451.898 361.121 448.832 366.785 450.453C366.785 450.453 349.141 399.191 328.13 337.515C314.27 296.851 274.839 320.221 289.491 346.64Z" fill="url(#paint7_linear)"/>
<path d="M370.252 457.874L370.146 457.771C367.423 455.154 363.424 454.077 359.9 455.426C359.852 455.445 359.804 455.464 359.759 455.484C357.029 456.579 355.44 459.434 355.668 462.362C355.866 464.935 356.376 468.629 357.689 470.391C358.916 472.038 365.955 479.465 369.409 481.048C372.184 482.316 376.493 482.143 381.356 481.442C386.22 480.737 391.945 477.559 391.644 474.71C391.055 469.071 374.02 461.494 370.252 457.874Z" fill="#4D3782"/>
<path d="M367.929 462.157C363.168 458.841 354.988 464.56 360.528 472.234C361.537 473.637 367.49 479.875 370.399 481.208C372.735 482.278 376.362 482.134 380.459 481.541C384.554 480.948 389.373 478.27 389.123 475.873C388.629 471.125 372.831 465.576 367.929 462.157Z" fill="#3A2B62"/>
<path d="M246.99 195.842C245.722 195.233 244.517 194.204 243.928 196.008C243.447 197.133 247.83 200.215 249.041 200.311C252.014 199.664 251.627 197.927 254.497 197.722C251.976 197.536 249.355 196.793 246.99 195.842Z" fill="#FCD2C5"/>
<path d="M256.676 197.52C253.805 197.725 250.768 198.196 247.798 198.844C244.274 199.577 236.597 202.099 236.059 202.275C234.524 202.877 230.494 203.883 229.472 204.684C228.821 205.194 227.629 207.318 227.652 208.34C227.681 209.695 229.116 210.121 229.116 210.121C228.805 211.851 233.224 211.784 233.054 212.188C232.365 213.851 234.425 215.302 240.391 213.184C240.75 213.059 256.429 210.756 261.379 209.606C260.918 206.501 256.84 197.524 256.676 197.52Z" fill="#FCD2C5"/>
<path d="M339.481 161.71C338.389 161.72 337.399 161.88 336.607 162.149C322.113 167.118 271.667 194.823 255.744 197.594C257.711 202.474 259.018 206.668 259.396 209.993C285.495 204.909 349.048 184.913 350.035 174.334C350.938 164.645 344.29 161.678 339.481 161.71Z" fill="#FCD2C5"/>
<path d="M370.822 86.4247C362.373 97.8018 345.552 140.321 333.605 159.134C318.953 182.209 340.282 184.189 346.975 178.64C364.603 164.007 406.01 115.491 399.372 105.568C396.491 101.268 372.353 84.3646 370.822 86.4247Z" fill="#FCD2C5"/>
<path d="M368.131 78.3541C362.649 91.7624 357.43 104.117 350.65 118.579C343.826 133.131 336.771 148.174 330.898 157.42C329.895 159.003 329.008 160.567 328.264 162.088C322.225 164.764 314.228 168.65 305.786 172.745C287.357 181.693 264.423 192.833 255.193 194.438L260.002 213.139C282.98 208.664 335.608 192.631 349.189 180.959C363.543 168.98 404.911 123.042 400.567 107.401C393.349 81.4106 368.566 77.2872 368.131 78.3541Z" fill="#5836E5"/>
<path d="M374.744 239.585C354.03 240.597 245.302 279.502 201.136 306.021C182.352 317.302 190.16 337.429 210.825 336.173C270.6 332.553 349.728 334.776 384.89 309.593C440.796 269.554 385.804 239.043 374.744 239.585Z" fill="url(#paint8_linear)"/>
<path d="M408.061 237.662C384.122 240.687 360.32 244.048 336.149 244.573C321.19 244.9 306.981 243.311 293.698 239.62C293.765 262.012 289.212 265.427 279.2 271.467C286.284 296.063 300.451 302.907 312.735 306.921C345.082 317.488 426 293.273 428.297 293.103C428.195 275.308 426.586 255.287 424.254 235.295C418.999 236.269 413.585 236.964 408.061 237.662Z" fill="#F0F0F0"/>
<path d="M358.519 41.3137C356.85 42.5536 339.51 52.239 334.554 51.5021C334.599 52.8798 337.975 67.3999 334.791 75.2207C336.194 82.4872 356.337 82.4776 361.848 70.1521C359.528 66.6502 357.555 48.0162 358.519 41.3137Z" fill="#FCD2C5"/>
<path d="M340.228 17.2587C331.097 16.6596 322.273 18.803 320.277 27.4279C319.559 30.5197 320.966 58.3713 335.845 62.5524C342.137 64.3177 354.184 53.5366 354.661 46.2093C354.661 46.2093 355.315 36.2259 355.318 36.1266C355.956 26.4187 350.035 17.8995 340.228 17.2587Z" fill="#FCD2C5"/>
<path d="M382.292 75.5314C377.143 74.3107 361.848 70.1521 361.848 70.1521C361.848 70.1521 358.849 74.3428 349.538 76.3324C341.176 78.117 334.788 75.2207 334.788 75.2207C334.788 75.2207 317.131 80.6417 313.924 82.5128C301.483 89.7825 301.422 95.0208 300.615 112.117C300.233 120.085 300.064 242.526 280.715 270.682C281.359 271.81 288.337 288.521 304.312 292.747L308.23 258.11L311.784 294.343C349.218 302.375 377.896 287.57 407.971 282.969L410.855 237.515L419.506 281.338C422.408 280.976 425.045 280.694 427.339 280.521C426.939 211.095 407.725 106.782 406.876 103.63C403.3 90.2439 397.748 79.1967 382.292 75.5314Z" fill="#5836E5"/>
<path d="M182.836 190.856C182.115 191.846 185.697 195.832 186.853 196.197C189.894 196.239 189.904 194.457 192.755 194.909C190.336 194.16 187.949 192.843 185.86 191.385C184.764 190.504 183.819 189.235 182.836 190.856Z" fill="#FCD2C5"/>
<path d="M185.969 194.49C182.371 194.413 174.32 195.137 173.753 195.191C172.125 195.432 167.97 195.508 166.794 196.06C166.047 196.409 164.407 198.209 164.195 199.209C163.92 200.532 165.221 201.272 165.221 201.272C164.532 202.89 168.851 203.816 168.597 204.172C167.55 205.636 169.232 207.513 175.521 206.793C175.896 206.748 191.691 208.039 196.776 208.033C197.026 204.906 195.075 195.243 194.914 195.201C192.073 194.752 189.013 194.528 185.969 194.49Z" fill="#FCD2C5"/>
<path d="M277.175 176.721C276.085 176.759 275.095 176.948 274.307 177.24C259.96 182.616 208.06 192.385 192.22 195.605C194.321 200.43 195.754 204.582 196.218 207.898C222.163 202.073 287.389 199.645 288.074 189.04C288.709 179.329 281.98 176.554 277.175 176.721Z" fill="#FCD2C5"/>
<path d="M306.369 100.576C298.247 112.187 282.641 155.165 271.228 174.311C257.233 197.793 278.613 199.17 285.149 193.432C302.351 178.303 342.361 128.633 335.447 118.906C332.449 114.686 307.842 98.4714 306.369 100.576Z" fill="#FCD2C5"/>
<path d="M303.45 92.5826C298.35 106.142 293.483 118.64 287.114 133.288C280.706 148.026 266.673 175.872 265.968 177.409C260.009 180.258 203.725 190.417 194.543 192.288L196.917 211.025C219.652 209.045 274.173 207.741 287.421 195.688C301.426 183.308 346.549 133.051 340.895 117.833C335.272 102.688 303.854 91.5061 303.45 92.5826Z" fill="#5836E5"/>
<path d="M308.98 25.3998C308.839 29.6867 316.436 35.0052 328.569 32.6503C330.571 59.7169 352.537 59.3228 360.051 53.5846C372.773 43.8736 374.042 19.2996 360.079 6.84601C341.817 -9.44269 309.611 5.99051 308.98 25.3998Z" fill="#4D3782"/>
<path d="M438.822 345.16L485.829 481.999H491.093L444.089 345.16H438.822Z" fill="#0079DB"/>
<path d="M359.361 345.16L406.366 481.999H411.633L364.625 345.16H359.361Z" fill="#0079DB"/>
<path d="M449.279 142.846C416.314 142.846 384.589 169.569 378.412 202.531L357.782 288.223C354.152 307.597 332.919 321.637 313.215 321.637H270.296C263.83 321.637 258.589 326.878 258.589 333.344C258.589 339.806 263.821 345.045 270.283 345.054L447.28 345.237C455.498 345.247 462.566 339.419 464.12 331.345L497.786 202.531C503.957 169.569 482.241 142.846 449.279 142.846Z" fill="url(#paint9_linear)"/>
<path d="M449.279 142.842C416.314 142.842 384.589 169.566 378.412 202.528L357.782 288.303C354.152 307.677 332.919 321.8 313.215 321.8H270.296C263.83 321.8 258.589 326.959 258.589 333.427C258.589 339.89 263.821 345.089 270.283 345.096L275.839 345.019C277.626 340.838 281.772 337.823 286.607 337.823H329.523C349.234 337.823 370.463 323.847 374.09 304.473L394.726 218.814C400.903 185.852 432.628 159.144 465.59 159.144C475.635 159.144 484.612 161.659 492.093 166.042C483.817 151.948 468.483 142.842 449.279 142.842Z" fill="#0079DB"/>
<path d="M256.08 481.999H261.347L308.355 345.16H303.088L256.08 481.999Z" fill="#0079DB"/>
<path d="M335.547 481.999H340.811L387.815 345.16H382.554L335.547 481.999Z" fill="#0079DB"/>
<defs>
<linearGradient id="paint0_linear" x1="81.655" y1="80.5395" x2="348.199" y2="80.5395" gradientUnits="userSpaceOnUse">
<stop stop-color="#9E90F2"/>
<stop offset="1" stop-color="#A1D8F6"/>
</linearGradient>
<linearGradient id="paint1_linear" x1="81.655" y1="80.5991" x2="114.814" y2="80.5991" gradientUnits="userSpaceOnUse">
<stop stop-color="#9E90F2"/>
<stop offset="1" stop-color="#A1D8F6"/>
</linearGradient>
<linearGradient id="paint2_linear" x1="330.565" y1="80.5991" x2="348.199" y2="80.5991" gradientUnits="userSpaceOnUse">
<stop stop-color="#9E90F2"/>
<stop offset="1" stop-color="#A1D8F6"/>
</linearGradient>
<linearGradient id="paint3_linear" x1="163.969" y1="221.49" x2="562.161" y2="221.49" gradientUnits="userSpaceOnUse">
<stop stop-color="#0079DB"/>
<stop offset="1" stop-color="#A1D8F6"/>
</linearGradient>
<linearGradient id="paint4_linear" x1="338.525" y1="139.555" x2="429.161" y2="139.555" gradientUnits="userSpaceOnUse">
<stop stop-color="#9E90F2"/>
<stop offset="1" stop-color="#A1D8F6"/>
</linearGradient>
<linearGradient id="paint5_linear" x1="446.895" y1="172.182" x2="470.521" y2="172.182" gradientUnits="userSpaceOnUse">
<stop stop-color="#9E90F2"/>
<stop offset="1" stop-color="#A1D8F6"/>
</linearGradient>
<linearGradient id="paint6_linear" x1="183.499" y1="322.742" x2="289.127" y2="436.014" gradientUnits="userSpaceOnUse">
<stop stop-color="#C66FD7"/>
<stop offset="0.1854" stop-color="#B868D9"/>
<stop offset="0.5367" stop-color="#9355DE"/>
<stop offset="1" stop-color="#5937E5"/>
</linearGradient>
<linearGradient id="paint7_linear" x1="281.417" y1="330.889" x2="380.76" y2="437.422" gradientUnits="userSpaceOnUse">
<stop stop-color="#C66FD7"/>
<stop offset="0.1854" stop-color="#B868D9"/>
<stop offset="0.5367" stop-color="#9355DE"/>
<stop offset="1" stop-color="#5937E5"/>
</linearGradient>
<linearGradient id="paint8_linear" x1="190.479" y1="287.905" x2="409.573" y2="287.905" gradientUnits="userSpaceOnUse">
<stop stop-color="#C66FD7"/>
<stop offset="1" stop-color="#5937E5"/>
</linearGradient>
<linearGradient id="paint9_linear" x1="258.584" y1="244.043" x2="498.832" y2="244.043" gradientUnits="userSpaceOnUse">
<stop stop-color="#9E90F2"/>
<stop offset="1" stop-color="#A1D8F6"/>
</linearGradient>
</defs>
</svg>
