<svg width="31" height="32" viewBox="0 0 31 32" fill="none" xmlns="http://www.w3.org/2000/svg">
<path fill-rule="evenodd" clip-rule="evenodd" d="M15.0469 0.79584C11.235 0.79584 10.6331 0.79584 9.02814 0.896153C7.42314 0.996466 6.21939 1.19709 5.31657 1.59834C4.31344 1.99959 3.41063 2.50116 2.60813 3.40397C1.70531 4.30678 1.20375 5.10929 0.802501 6.11241C0.401251 7.11554 0.200625 8.21898 0.100312 9.82398C-5.75488e-07 11.429 0 12.0309 0 16.1437C0 20.3568 -5.75488e-07 20.8584 0.100312 22.4634C0.200625 24.0684 0.401251 25.2721 0.802501 26.1749C1.20375 27.1781 1.70531 28.0809 2.60813 28.8834C3.51094 29.7862 4.31344 30.2878 5.31657 30.689C6.3197 31.0903 7.42314 31.2909 9.02814 31.3912C10.6331 31.4915 11.235 31.4915 15.3478 31.4915C19.561 31.4915 20.0625 31.4915 21.6675 31.3912C23.2725 31.2909 24.4763 31.0903 25.3791 30.689C26.3822 30.2878 27.285 29.7862 28.0875 28.8834C28.9904 27.9806 29.4919 27.1781 29.8932 26.1749C30.2944 25.1718 30.495 24.0684 30.5954 22.4634C30.6957 20.8584 30.6957 20.3568 30.6957 16.4446V15.6421C30.6957 11.8302 30.6957 11.2284 30.5954 9.62336C30.495 8.01835 30.2944 6.8146 29.8932 5.91179C29.4919 4.90866 28.9904 4.00584 28.0875 3.20334C27.1847 2.30053 26.3822 1.79897 25.3791 1.39772C24.376 0.996466 23.2725 0.795841 21.6675 0.695528C20.0625 0.595215 19.561 0.595215 15.6488 0.595215H15.0469V0.79584ZM25.5797 7.91804C25.5797 8.92117 24.7772 9.72367 23.7741 9.72367C22.771 9.72367 21.9685 8.92117 21.9685 7.91804C21.9685 6.91491 22.771 6.11241 23.7741 6.11241C24.6769 6.11241 25.5797 6.91491 25.5797 7.91804ZM15.4482 21.2596C12.6394 21.2596 10.3322 18.9524 10.3322 16.1437C10.3322 13.3349 12.6394 11.0277 15.4482 11.0277C18.2569 11.0277 20.5641 13.3349 20.5641 16.1437C20.5641 18.9524 18.2569 21.2596 15.4482 21.2596ZM15.4482 8.21898C19.8619 8.21898 23.3729 11.7299 23.3729 16.1437C23.3729 20.5574 19.8619 24.0684 15.4482 24.0684C11.0344 24.0684 7.52345 20.5574 7.52345 16.1437C7.52345 11.7299 11.1347 8.21898 15.4482 8.21898ZM15.4482 3.50428C19.561 3.50428 20.0625 3.50428 21.6675 3.6046C23.1722 3.70491 23.9747 3.90553 24.5766 4.10616C25.2788 4.4071 25.7804 4.70803 26.3822 5.2096C26.8838 5.71116 27.285 6.21272 27.4857 7.01523C27.6863 7.51679 27.9872 8.4196 27.9872 9.92429C28.0875 11.5293 28.0875 12.0309 28.0875 16.1437C28.0875 20.2565 28.0875 20.7581 27.9872 22.3631C27.8869 23.8678 27.6863 24.6703 27.4857 25.2721C27.1847 25.9743 26.8838 26.4759 26.3822 27.0778C25.8807 27.5793 25.3791 27.9806 24.5766 28.1812C24.075 28.3818 23.1722 28.6828 21.6675 28.6828C20.0625 28.7831 19.561 28.7831 15.4482 28.7831C11.3353 28.7831 10.8338 28.7831 9.22876 28.6828C7.72407 28.5824 6.92157 28.3818 6.3197 28.1812C5.61751 27.8803 5.11594 27.5793 4.51407 27.0778C4.01251 26.5762 3.61126 26.0746 3.41063 25.2721C3.21001 24.7706 2.90907 23.8678 2.90907 22.3631C2.80876 20.7581 2.80875 20.2565 2.80875 16.1437C2.80875 12.0309 2.80876 11.5293 2.90907 9.92429C3.00938 8.4196 3.21001 7.6171 3.41063 7.01523C3.71157 6.31304 4.01251 5.81147 4.51407 5.2096C5.01563 4.70803 5.5172 4.30678 6.3197 4.10616C6.82126 3.90553 7.72407 3.6046 9.22876 3.6046C10.8338 3.50428 11.3353 3.50428 15.4482 3.50428Z" fill="white"/>
</svg>
