<svg width="271" height="62" viewBox="0 0 271 62" fill="none" xmlns="http://www.w3.org/2000/svg">
<path d="M24.7888 22.9135C18.2402 26.1097 12.3713 30.4485 7.42895 35.6982V12.8927L24.7888 22.9135ZM0 61.9931C0 61.9931 0 62.0086 0 61.9931C2.91905 51.8488 8.80349 42.9397 16.6494 36.2849L31.5073 61.9931H40.0945L22.6729 31.8535C28.5264 28.1478 35.1522 25.5693 42.2568 24.3958L0 0V61.9931Z" fill="white"/>
<path d="M50.2718 26.1719H61.9944V35.467H27.6144L26.0391 32.734C33.2054 28.6578 41.4683 26.28 50.2718 26.1719Z" fill="white"/>
<path d="M37.2249 52.6975L42.6151 61.9926H61.6429V52.6975H37.2249Z" fill="white"/>
<path d="M4.94727 0L21.0561 9.31054H62V0H4.94727Z" fill="white"/>
<path d="M75.8485 12.4013H80.4791C82.5055 12.4013 84.0174 12.7891 85.0148 13.5649C86.0121 14.3248 86.5108 15.6388 86.5108 17.5068C86.5108 18.7259 86.3287 19.7232 85.9646 20.4989C85.6163 21.2588 85.0068 21.8129 84.1361 22.1612L86.8195 31.6362H83.305L81.0015 22.8261H79.3393V31.6362H75.8485V12.4013ZM80.4554 20.6414C81.4527 20.6414 82.1572 20.4119 82.5688 19.9528C82.9963 19.4937 83.21 18.7417 83.21 17.6968C83.21 16.6836 83.02 15.9475 82.6401 15.4884C82.2759 15.0293 81.611 14.7997 80.6453 14.7997H79.3393V20.6414H80.4554ZM93.1017 31.85C91.5819 31.85 90.4658 31.4304 89.7534 30.5914C89.041 29.7365 88.6848 28.4779 88.6848 26.8156V22.7312C88.6848 21.053 89.041 19.7945 89.7534 18.9554C90.4816 18.1163 91.5977 17.6968 93.1017 17.6968C94.6531 17.6968 95.7455 18.1322 96.3787 19.0029C97.0278 19.8736 97.3524 21.1876 97.3524 22.9449V24.9159H91.8906V27.623C91.8906 28.2879 91.9856 28.7708 92.1755 29.0716C92.3814 29.3724 92.698 29.5228 93.1254 29.5228C93.537 29.5228 93.8299 29.3803 94.0041 29.0953C94.194 28.7945 94.289 28.3433 94.289 27.7417V26.5781H97.3286V27.528C97.3286 28.937 96.9724 30.0135 96.26 30.7576C95.5476 31.4858 94.4948 31.85 93.1017 31.85ZM94.289 23.3248V22.0187C94.289 21.3063 94.2019 20.7997 94.0278 20.4989C93.8537 20.1823 93.5449 20.024 93.1017 20.024C92.6426 20.024 92.3259 20.1902 92.1518 20.5227C91.9777 20.8552 91.8906 21.4726 91.8906 22.375V23.3248H94.289ZM99.5439 17.9105H102.655V19.1216C103.573 18.1559 104.65 17.6731 105.884 17.6731C106.438 17.6731 106.913 17.8156 107.309 18.1005C107.705 18.3696 107.998 18.7813 108.188 19.3354C109.138 18.2272 110.293 17.6731 111.655 17.6731C112.415 17.6731 113.024 17.9501 113.483 18.5042C113.958 19.0583 114.196 19.8578 114.196 20.9026V31.6362H111.109V21.2114C111.109 20.7048 111.022 20.3486 110.847 20.1427C110.689 19.9369 110.444 19.834 110.111 19.834C109.858 19.834 109.573 19.9053 109.256 20.0478C108.956 20.1902 108.679 20.3881 108.425 20.6414V20.9026V31.6362H105.362V21.2114C105.362 20.7048 105.275 20.3486 105.101 20.1427C104.927 19.9369 104.673 19.834 104.341 19.834C104.088 19.834 103.81 19.9053 103.51 20.0478C103.209 20.1902 102.924 20.3881 102.655 20.6414V31.6362H99.5439V17.9105ZM120.745 31.85C119.272 31.85 118.172 31.4463 117.444 30.6389C116.715 29.8156 116.351 28.6283 116.351 27.0768V22.4699C116.351 20.9185 116.715 19.739 117.444 18.9317C118.172 18.1084 119.272 17.6968 120.745 17.6968C122.217 17.6968 123.317 18.1084 124.045 18.9317C124.789 19.739 125.161 20.9185 125.161 22.4699V27.0768C125.161 28.6283 124.789 29.8156 124.045 30.6389C123.317 31.4463 122.217 31.85 120.745 31.85ZM120.768 29.6177C121.259 29.6177 121.584 29.4278 121.742 29.0478C121.9 28.652 121.979 28.0742 121.979 27.3143V22.2562C121.979 21.4963 121.9 20.9185 121.742 20.5227C121.584 20.1269 121.259 19.929 120.768 19.929C120.262 19.929 119.929 20.1269 119.771 20.5227C119.613 20.9185 119.533 21.4963 119.533 22.2562V27.3143C119.533 28.0742 119.613 28.652 119.771 29.0478C119.929 29.4278 120.262 29.6177 120.768 29.6177ZM131.361 31.8025C130.111 31.8025 129.224 31.5017 128.702 30.9001C128.195 30.2985 127.942 29.404 127.942 28.2167V20.024H126.564V17.9105H127.942V13.8023H131.195V17.9105H133.261V20.024H131.195V27.9317C131.195 28.3908 131.29 28.7233 131.48 28.9291C131.686 29.1349 132.002 29.2378 132.43 29.2378C132.826 29.2378 133.158 29.2061 133.427 29.1428V31.6362C132.794 31.747 132.105 31.8025 131.361 31.8025ZM135.494 12.4013H143.568V14.8709H138.985V20.404H142.594V22.8499H138.985V29.2378H143.615V31.6362H135.494V12.4013ZM145.438 17.9105H148.548V19.1216C149.467 18.1559 150.543 17.6731 151.778 17.6731C152.332 17.6731 152.807 17.8156 153.203 18.1005C153.599 18.3696 153.891 18.7813 154.081 19.3354C155.031 18.2272 156.187 17.6731 157.548 17.6731C158.308 17.6731 158.918 17.9501 159.377 18.5042C159.852 19.0583 160.089 19.8578 160.089 20.9026V31.6362H157.002V21.2114C157.002 20.7048 156.915 20.3486 156.741 20.1427C156.583 19.9369 156.337 19.834 156.005 19.834C155.752 19.834 155.467 19.9053 155.15 20.0478C154.849 20.1902 154.572 20.3881 154.319 20.6414V20.9026V31.6362H151.256V21.2114C151.256 20.7048 151.168 20.3486 150.994 20.1427C150.82 19.9369 150.567 19.834 150.234 19.834C149.981 19.834 149.704 19.9053 149.403 20.0478C149.102 20.1902 148.818 20.3881 148.548 20.6414V31.6362H145.438V17.9105ZM162.482 17.9105H165.712V18.9554C166.583 18.1163 167.517 17.6968 168.514 17.6968C169.622 17.6968 170.406 18.1559 170.865 19.0741C171.324 19.9923 171.554 21.061 171.554 22.28V26.9344C171.554 28.4067 171.292 29.594 170.77 30.4964C170.263 31.3988 169.456 31.85 168.348 31.85C167.461 31.85 166.583 31.4383 165.712 30.6151V36.1481H162.482V17.9105ZM167.137 29.594C167.596 29.594 167.905 29.3724 168.063 28.9291C168.237 28.4858 168.324 27.8605 168.324 27.0531V22.1137C168.324 21.4013 168.237 20.8472 168.063 20.4515C167.889 20.0557 167.572 19.8578 167.113 19.8578C166.638 19.8578 166.171 20.0557 165.712 20.4515V29.1191C166.155 29.4357 166.63 29.594 167.137 29.594ZM173.99 12.4013H177.196V31.6362H173.99V12.4013ZM183.915 31.85C182.443 31.85 181.342 31.4463 180.614 30.6389C179.886 29.8156 179.522 28.6283 179.522 27.0768V22.4699C179.522 20.9185 179.886 19.739 180.614 18.9317C181.342 18.1084 182.443 17.6968 183.915 17.6968C185.387 17.6968 186.487 18.1084 187.216 18.9317C187.96 19.739 188.332 20.9185 188.332 22.4699V27.0768C188.332 28.6283 187.96 29.8156 187.216 30.6389C186.487 31.4463 185.387 31.85 183.915 31.85ZM183.939 29.6177C184.429 29.6177 184.754 29.4278 184.912 29.0478C185.071 28.652 185.15 28.0742 185.15 27.3143V22.2562C185.15 21.4963 185.071 20.9185 184.912 20.5227C184.754 20.1269 184.429 19.929 183.939 19.929C183.432 19.929 183.1 20.1269 182.941 20.5227C182.783 20.9185 182.704 21.4963 182.704 22.2562V27.3143C182.704 28.0742 182.783 28.652 182.941 29.0478C183.1 29.4278 183.432 29.6177 183.939 29.6177ZM190.661 33.0373C191.516 33.0373 192.117 32.9581 192.466 32.7998C192.83 32.6573 193.012 32.3724 193.012 31.9449C193.012 31.66 192.846 30.8526 192.513 29.5228L189.497 17.9105H192.632L194.413 26.9818L195.956 17.9105H199.067L195.861 32.1824C195.592 33.3381 195.078 34.1534 194.318 34.6283C193.574 35.1191 192.561 35.3645 191.278 35.3645H190.661V33.0373ZM204.717 31.85C203.197 31.85 202.081 31.4304 201.368 30.5914C200.656 29.7365 200.3 28.4779 200.3 26.8156V22.7312C200.3 21.053 200.656 19.7945 201.368 18.9554C202.097 18.1163 203.213 17.6968 204.717 17.6968C206.268 17.6968 207.36 18.1322 207.994 19.0029C208.643 19.8736 208.967 21.1876 208.967 22.9449V24.9159H203.505V27.623C203.505 28.2879 203.6 28.7708 203.79 29.0716C203.996 29.3724 204.313 29.5228 204.74 29.5228C205.152 29.5228 205.445 29.3803 205.619 29.0953C205.809 28.7945 205.904 28.3433 205.904 27.7417V26.5781H208.944V27.528C208.944 28.937 208.587 30.0135 207.875 30.7576C207.163 31.4858 206.11 31.85 204.717 31.85ZM205.904 23.3248V22.0187C205.904 21.3063 205.817 20.7997 205.643 20.4989C205.469 20.1823 205.16 20.024 204.717 20.024C204.257 20.024 203.941 20.1902 203.767 20.5227C203.593 20.8552 203.505 21.4726 203.505 22.375V23.3248H205.904ZM215.315 31.85C213.795 31.85 212.679 31.4304 211.966 30.5914C211.254 29.7365 210.898 28.4779 210.898 26.8156V22.7312C210.898 21.053 211.254 19.7945 211.966 18.9554C212.694 18.1163 213.811 17.6968 215.315 17.6968C216.866 17.6968 217.958 18.1322 218.592 19.0029C219.241 19.8736 219.565 21.1876 219.565 22.9449V24.9159H214.103V27.623C214.103 28.2879 214.198 28.7708 214.388 29.0716C214.594 29.3724 214.911 29.5228 215.338 29.5228C215.75 29.5228 216.043 29.3803 216.217 29.0953C216.407 28.7945 216.502 28.3433 216.502 27.7417V26.5781H219.541V27.528C219.541 28.937 219.185 30.0135 218.473 30.7576C217.76 31.4858 216.708 31.85 215.315 31.85ZM216.502 23.3248V22.0187C216.502 21.3063 216.415 20.7997 216.241 20.4989C216.067 20.1823 215.758 20.024 215.315 20.024C214.855 20.024 214.539 20.1902 214.365 20.5227C214.191 20.8552 214.103 21.4726 214.103 22.375V23.3248H216.502ZM225.485 31.85C224.329 31.85 223.38 31.5412 222.635 30.9238C221.891 30.3064 221.361 29.404 221.044 28.2167L223.443 27.2906C223.807 28.8262 224.472 29.594 225.438 29.594C225.802 29.594 226.079 29.499 226.269 29.309C226.475 29.1191 226.577 28.8578 226.577 28.5254C226.577 28.1613 226.467 27.8288 226.245 27.528C226.023 27.2114 225.628 26.8156 225.058 26.3407L223.419 24.9159C222.723 24.3459 222.208 23.7918 221.876 23.2536C221.543 22.7153 221.377 22.0583 221.377 21.2826C221.377 20.2061 221.741 19.3433 222.469 18.6942C223.213 18.0293 224.147 17.6968 225.271 17.6968C226.348 17.6968 227.227 18.0214 227.907 18.6704C228.588 19.3037 229.031 20.1665 229.237 21.2588L227.124 22.1612C226.997 21.528 226.783 21.0135 226.482 20.6177C226.197 20.2061 225.825 20.0003 225.366 20.0003C225.034 20.0003 224.765 20.1032 224.559 20.309C224.369 20.5148 224.274 20.776 224.274 21.0926C224.274 21.3459 224.385 21.6151 224.606 21.9C224.828 22.185 225.161 22.5174 225.604 22.8974L227.266 24.4172C227.978 25.0346 228.525 25.6283 228.905 26.1982C229.3 26.7523 229.498 27.4251 229.498 28.2167C229.498 29.3724 229.118 30.2668 228.358 30.9001C227.614 31.5333 226.657 31.85 225.485 31.85Z" fill="white"/>
<path d="M78.4141 54.7095H77.7109V45.384H74.4682V44.7286H81.6568V45.384H78.4141V54.7095ZM88.1492 54.7095V49.8965C88.1492 49.1501 87.9922 48.6085 87.6781 48.2718C87.3641 47.9304 86.8771 47.7597 86.2172 47.7597C85.3297 47.7597 84.6789 47.985 84.2647 48.4356C83.8551 48.8816 83.6503 49.6075 83.6503 50.6134V54.7095H82.9744V44.0869H83.6503V47.4662L83.6161 48.4151H83.6639C83.9416 47.9691 84.292 47.646 84.7153 47.4457C85.1385 47.2454 85.6642 47.1453 86.2923 47.1453C87.9762 47.1453 88.8182 48.0487 88.8182 49.8556V54.7095H88.1492ZM94.2182 54.846C93.1396 54.846 92.2976 54.5138 91.6923 53.8493C91.0916 53.1848 90.7912 52.2541 90.7912 51.0571C90.7912 49.8738 91.0824 48.9271 91.665 48.2171C92.2476 47.5026 93.0327 47.1453 94.0203 47.1453C94.8941 47.1453 95.5836 47.4503 96.0888 48.0601C96.594 48.67 96.8466 49.4983 96.8466 50.5451V51.0912H91.5012C91.5103 52.1107 91.7469 52.889 92.2112 53.426C92.6799 53.9631 93.349 54.2316 94.2182 54.2316C94.6415 54.2316 95.0124 54.202 95.331 54.1428C95.6542 54.0837 96.0615 53.9562 96.553 53.7605V54.375C96.1343 54.557 95.7475 54.6799 95.3925 54.7436C95.0375 54.8119 94.6461 54.846 94.2182 54.846ZM94.0203 47.7461C93.3057 47.7461 92.7323 47.9827 92.2999 48.4561C91.8675 48.9249 91.6149 49.603 91.5421 50.4905H96.1298C96.1298 49.6303 95.9432 48.959 95.57 48.4766C95.1968 47.9896 94.6802 47.7461 94.0203 47.7461ZM108.664 50.9888C108.664 52.1995 108.37 53.1461 107.783 53.8288C107.196 54.5069 106.386 54.846 105.353 54.846C104.702 54.846 104.129 54.689 103.632 54.375C103.136 54.0609 102.756 53.6103 102.492 53.0232C102.228 52.4361 102.096 51.758 102.096 50.9888C102.096 49.7782 102.39 48.8361 102.977 48.1625C103.564 47.4844 104.37 47.1453 105.394 47.1453C106.413 47.1453 107.212 47.4889 107.79 48.1762C108.373 48.8589 108.664 49.7964 108.664 50.9888ZM102.806 50.9888C102.806 52.0083 103.029 52.8048 103.475 53.3782C103.926 53.9471 104.561 54.2316 105.38 54.2316C106.199 54.2316 106.832 53.9471 107.278 53.3782C107.729 52.8048 107.954 52.0083 107.954 50.9888C107.954 49.9648 107.726 49.1706 107.271 48.6063C106.821 48.0419 106.186 47.7597 105.366 47.7597C104.547 47.7597 103.915 48.0419 103.469 48.6063C103.027 49.1661 102.806 49.9603 102.806 50.9888ZM111.306 47.2887V52.0948C111.306 52.8412 111.463 53.3851 111.777 53.7264C112.091 54.0632 112.578 54.2316 113.238 54.2316C114.121 54.2316 114.769 54.0086 115.184 53.5626C115.602 53.1165 115.812 52.3906 115.812 51.3848V47.2887H116.481V54.7095H115.907L115.784 53.6854H115.743C115.261 54.4592 114.403 54.846 113.17 54.846C111.481 54.846 110.637 53.9426 110.637 52.1358V47.2887H111.306ZM120.925 54.2452C121.353 54.2452 121.726 54.2088 122.044 54.136V54.6822C121.717 54.7914 121.339 54.846 120.911 54.846C120.256 54.846 119.771 54.6708 119.457 54.3203C119.148 53.9699 118.993 53.4192 118.993 52.6682V47.8758H117.894V47.4798L118.993 47.1726L119.334 45.4932H119.682V47.2887H121.86V47.8758H119.682V52.5727C119.682 53.1416 119.783 53.5626 119.983 53.8356C120.183 54.1087 120.497 54.2452 120.925 54.2452ZM128.25 52.7775C128.25 53.442 127.998 53.954 127.492 54.3135C126.987 54.6685 126.27 54.846 125.342 54.846C124.35 54.846 123.562 54.6935 122.98 54.3886V53.6581C123.726 54.0313 124.514 54.2179 125.342 54.2179C126.075 54.2179 126.63 54.0973 127.008 53.8561C127.39 53.6103 127.581 53.2849 127.581 52.8799C127.581 52.5067 127.429 52.1926 127.124 51.9378C126.823 51.6829 126.327 51.4326 125.635 51.1868C124.894 50.9183 124.372 50.6885 124.072 50.4973C123.772 50.3016 123.544 50.0831 123.389 49.8419C123.239 49.5962 123.164 49.2981 123.164 48.9476C123.164 48.3924 123.396 47.9532 123.86 47.63C124.329 47.3069 124.982 47.1453 125.82 47.1453C126.621 47.1453 127.381 47.2955 128.1 47.5959L127.847 48.2103C127.119 47.9099 126.443 47.7597 125.82 47.7597C125.214 47.7597 124.734 47.8599 124.379 48.0601C124.024 48.2604 123.847 48.538 123.847 48.893C123.847 49.2799 123.983 49.5893 124.256 49.8214C124.534 50.0536 125.073 50.313 125.874 50.5997C126.543 50.8409 127.03 51.0594 127.335 51.2551C127.64 51.4462 127.868 51.6647 128.018 51.9105C128.173 52.1562 128.25 52.4452 128.25 52.7775ZM132.121 54.2452C132.549 54.2452 132.922 54.2088 133.241 54.136V54.6822C132.913 54.7914 132.535 54.846 132.107 54.846C131.452 54.846 130.967 54.6708 130.653 54.3203C130.344 53.9699 130.189 53.4192 130.189 52.6682V47.8758H129.09V47.4798L130.189 47.1726L130.53 45.4932H130.878V47.2887H133.056V47.8758H130.878V52.5727C130.878 53.1416 130.979 53.5626 131.179 53.8356C131.379 54.1087 131.693 54.2452 132.121 54.2452ZM139.351 54.7095L139.18 53.5353H139.125C138.752 54.0131 138.367 54.3522 137.972 54.5525C137.58 54.7482 137.116 54.846 136.579 54.846C135.851 54.846 135.284 54.6594 134.879 54.2862C134.474 53.913 134.271 53.3964 134.271 52.7365C134.271 52.0129 134.572 51.4508 135.173 51.0503C135.778 50.6498 136.652 50.4381 137.794 50.4154L139.207 50.3744V49.8829C139.207 49.1774 139.064 48.645 138.777 48.2854C138.49 47.9259 138.028 47.7461 137.391 47.7461C136.704 47.7461 135.992 47.9372 135.254 48.3195L135.002 47.7324C135.817 47.3501 136.622 47.159 137.419 47.159C138.233 47.159 138.841 47.3706 139.241 47.7939C139.646 48.2171 139.849 48.8771 139.849 49.7737V54.7095H139.351ZM136.62 54.2316C137.412 54.2316 138.035 54.0063 138.49 53.5557C138.95 53.1006 139.18 52.4703 139.18 51.6647V50.9342L137.883 50.9888C136.841 51.0389 136.096 51.2027 135.65 51.4804C135.209 51.7534 134.988 52.1813 134.988 52.7638C134.988 53.228 135.129 53.5899 135.411 53.8493C135.698 54.1042 136.101 54.2316 136.62 54.2316ZM145.017 47.8758H143.269V54.7095H142.593V47.8758H141.214V47.4798L142.593 47.2272V46.6538C142.593 45.7435 142.759 45.0768 143.092 44.6535C143.428 44.2257 143.977 44.0118 144.737 44.0118C145.147 44.0118 145.556 44.0732 145.966 44.1961L145.809 44.7832C145.445 44.6695 145.083 44.6126 144.723 44.6126C144.195 44.6126 143.82 44.7696 143.597 45.0836C143.378 45.3931 143.269 45.8983 143.269 46.5992V47.2887H145.017V47.8758ZM149.209 47.8758H147.461V54.7095H146.785V47.8758H145.406V47.4798L146.785 47.2272V46.6538C146.785 45.7435 146.951 45.0768 147.283 44.6535C147.62 44.2257 148.169 44.0118 148.929 44.0118C149.338 44.0118 149.748 44.0732 150.157 44.1961L150 44.7832C149.636 44.6695 149.275 44.6126 148.915 44.6126C148.387 44.6126 148.012 44.7696 147.789 45.0836C147.57 45.3931 147.461 45.8983 147.461 46.5992V47.2887H149.209V47.8758ZM151.325 54.7095H150.649V47.2887H151.325V54.7095ZM150.553 45.227C150.553 44.7901 150.697 44.5716 150.984 44.5716C151.125 44.5716 151.234 44.6285 151.311 44.7423C151.393 44.8561 151.434 45.0176 151.434 45.227C151.434 45.4318 151.393 45.5934 151.311 45.7117C151.234 45.83 151.125 45.8892 150.984 45.8892C150.697 45.8892 150.553 45.6684 150.553 45.227ZM158.985 54.7095V49.8965C158.985 49.1501 158.828 48.6085 158.514 48.2718C158.199 47.9304 157.713 47.7597 157.053 47.7597C156.165 47.7597 155.514 47.985 155.1 48.4356C154.69 48.8816 154.486 49.6075 154.486 50.6134V54.7095H153.81V47.2887H154.383L154.513 48.3059H154.554C155.036 47.5322 155.894 47.1453 157.128 47.1453C158.812 47.1453 159.654 48.0487 159.654 49.8556V54.7095H158.985ZM167.846 47.2887V47.7597L166.31 47.8553C166.719 48.3651 166.924 48.9249 166.924 49.5347C166.924 50.2493 166.685 50.8295 166.207 51.2756C165.734 51.717 165.097 51.9378 164.296 51.9378C163.959 51.9378 163.722 51.9241 163.586 51.8968C163.317 52.0379 163.113 52.204 162.971 52.3952C162.83 52.5863 162.76 52.7889 162.76 53.0028C162.76 53.2394 162.849 53.4124 163.026 53.5216C163.208 53.6308 163.511 53.6854 163.934 53.6854H165.231C166.037 53.6854 166.653 53.8493 167.081 54.177C167.509 54.5001 167.723 54.9803 167.723 55.6174C167.723 56.4003 167.404 57.0033 166.767 57.4266C166.135 57.8544 165.231 58.0683 164.057 58.0683C163.124 58.0683 162.4 57.8885 161.886 57.529C161.376 57.1694 161.121 56.6688 161.121 56.0271C161.121 55.5173 161.278 55.0941 161.592 54.7573C161.911 54.4205 162.341 54.1906 162.883 54.0677C162.66 53.9722 162.48 53.8379 162.343 53.665C162.211 53.4875 162.145 53.2849 162.145 53.0574C162.145 52.5613 162.462 52.1244 163.094 51.7466C162.662 51.5691 162.325 51.2915 162.084 50.9137C161.843 50.5314 161.722 50.0945 161.722 49.603C161.722 48.8611 161.957 48.2672 162.425 47.8212C162.899 47.3706 163.536 47.1453 164.337 47.1453C164.824 47.1453 165.202 47.1931 165.47 47.2887H167.846ZM161.838 55.9656C161.838 56.9851 162.596 57.4948 164.112 57.4948C166.059 57.4948 167.033 56.8736 167.033 55.6311C167.033 55.1851 166.881 54.8619 166.576 54.6617C166.271 54.4614 165.777 54.3613 165.095 54.3613H163.879C162.519 54.3613 161.838 54.8961 161.838 55.9656ZM162.405 49.603C162.405 50.1764 162.578 50.6225 162.924 50.9411C163.274 51.2551 163.741 51.4121 164.323 51.4121C164.942 51.4121 165.415 51.2551 165.743 50.9411C166.075 50.627 166.242 50.1719 166.242 49.5757C166.242 48.9431 166.071 48.4697 165.73 48.1557C165.393 47.8371 164.919 47.6778 164.31 47.6778C163.718 47.6778 163.251 47.8485 162.91 48.1898C162.573 48.5266 162.405 48.9977 162.405 49.603ZM175.97 54.846C174.909 54.846 174.079 54.5115 173.478 53.8425C172.877 53.1734 172.577 52.2404 172.577 51.0435C172.577 49.8146 172.889 48.8589 173.512 48.1762C174.136 47.4889 174.989 47.1453 176.072 47.1453C176.714 47.1453 177.328 47.2568 177.915 47.4798L177.731 48.0806C177.089 47.8667 176.532 47.7597 176.059 47.7597C175.148 47.7597 174.459 48.0419 173.99 48.6063C173.521 49.1661 173.287 49.9739 173.287 51.0298C173.287 52.0311 173.521 52.8162 173.99 53.3851C174.459 53.9494 175.114 54.2316 175.956 54.2316C176.63 54.2316 177.255 54.111 177.834 53.8698V54.4978C177.36 54.73 176.739 54.846 175.97 54.846ZM185.794 50.9888C185.794 52.1995 185.5 53.1461 184.913 53.8288C184.326 54.5069 183.516 54.846 182.483 54.846C181.832 54.846 181.258 54.689 180.762 54.375C180.266 54.0609 179.886 53.6103 179.622 53.0232C179.358 52.4361 179.226 51.758 179.226 50.9888C179.226 49.7782 179.52 48.8361 180.107 48.1625C180.694 47.4844 181.5 47.1453 182.524 47.1453C183.543 47.1453 184.342 47.4889 184.92 48.1762C185.502 48.8589 185.794 49.7964 185.794 50.9888ZM179.936 50.9888C179.936 52.0083 180.159 52.8048 180.605 53.3782C181.056 53.9471 181.691 54.2316 182.51 54.2316C183.329 54.2316 183.962 53.9471 184.408 53.3782C184.858 52.8048 185.084 52.0083 185.084 50.9888C185.084 49.9648 184.856 49.1706 184.401 48.6063C183.95 48.0419 183.315 47.7597 182.496 47.7597C181.677 47.7597 181.044 48.0419 180.598 48.6063C180.157 49.1661 179.936 49.9603 179.936 50.9888ZM197.119 54.7095V49.8419C197.119 49.1183 196.978 48.5903 196.696 48.2581C196.414 47.9259 195.982 47.7597 195.399 47.7597C194.639 47.7597 194.077 47.9691 193.713 48.3878C193.349 48.8065 193.167 49.4642 193.167 50.3608V54.7095H192.477V49.6371C192.477 48.3855 191.904 47.7597 190.757 47.7597C189.978 47.7597 189.412 47.9873 189.057 48.4424C188.702 48.893 188.524 49.6166 188.524 50.6134V54.7095H187.848V47.2887H188.408L188.552 48.3059H188.593C188.797 47.9372 189.089 47.6528 189.466 47.4525C189.844 47.2477 190.261 47.1453 190.716 47.1453C191.885 47.1453 192.636 47.5845 192.969 48.4629H192.996C193.237 48.0396 193.56 47.7142 193.965 47.4867C194.375 47.2591 194.839 47.1453 195.358 47.1453C196.168 47.1453 196.776 47.3615 197.181 47.7939C197.586 48.2262 197.788 48.9135 197.788 49.8556V54.7095H197.119ZM203.366 54.846C202.224 54.846 201.391 54.4182 200.867 53.5626H200.82L200.84 54.136C200.858 54.4728 200.867 54.8415 200.867 55.242V58.0683H200.191V47.2887H200.765L200.895 48.3468H200.936C201.445 47.5458 202.26 47.1453 203.38 47.1453C204.381 47.1453 205.143 47.4753 205.667 48.1352C206.195 48.7906 206.458 49.7464 206.458 51.0025C206.458 52.2222 206.181 53.1689 205.626 53.8425C205.075 54.5115 204.322 54.846 203.366 54.846ZM203.352 54.2452C204.112 54.2452 204.699 53.9631 205.114 53.3987C205.532 52.8344 205.742 52.0447 205.742 51.0298C205.742 48.8498 204.954 47.7597 203.38 47.7597C202.515 47.7597 201.88 47.9987 201.475 48.4766C201.07 48.9499 200.867 49.7236 200.867 50.7977V51.0161C200.867 52.1767 201.061 53.005 201.448 53.5011C201.839 53.9972 202.474 54.2452 203.352 54.2452ZM213.026 54.7095L212.855 53.5353H212.801C212.427 54.0131 212.043 54.3522 211.647 54.5525C211.255 54.7482 210.791 54.846 210.254 54.846C209.526 54.846 208.959 54.6594 208.554 54.2862C208.149 53.913 207.947 53.3964 207.947 52.7365C207.947 52.0129 208.247 51.4508 208.848 51.0503C209.453 50.6498 210.327 50.4381 211.469 50.4154L212.883 50.3744V49.8829C212.883 49.1774 212.739 48.645 212.452 48.2854C212.166 47.9259 211.704 47.7461 211.067 47.7461C210.379 47.7461 209.667 47.9372 208.93 48.3195L208.677 47.7324C209.492 47.3501 210.297 47.159 211.094 47.159C211.909 47.159 212.516 47.3706 212.917 47.7939C213.322 48.2171 213.524 48.8771 213.524 49.7737V54.7095H213.026ZM210.295 54.2316C211.087 54.2316 211.711 54.0063 212.166 53.5557C212.625 53.1006 212.855 52.4703 212.855 51.6647V50.9342L211.558 50.9888C210.516 51.0389 209.772 51.2027 209.326 51.4804C208.884 51.7534 208.664 52.1813 208.664 52.7638C208.664 53.228 208.805 53.5899 209.087 53.8493C209.374 54.1042 209.776 54.2316 210.295 54.2316ZM221.109 54.7095V49.8965C221.109 49.1501 220.952 48.6085 220.638 48.2718C220.324 47.9304 219.837 47.7597 219.177 47.7597C218.289 47.7597 217.639 47.985 217.224 48.4356C216.815 48.8816 216.61 49.6075 216.61 50.6134V54.7095H215.934V47.2887H216.508L216.637 48.3059H216.678C217.161 47.5322 218.019 47.1453 219.252 47.1453C220.936 47.1453 221.778 48.0487 221.778 49.8556V54.7095H221.109ZM222.939 47.2887H223.635L225.205 51.4531C225.683 52.732 225.986 53.5944 226.113 54.0404H226.154C226.345 53.4533 226.657 52.5772 227.089 51.4121L228.659 47.2887H229.356L226.031 55.911C225.763 56.6119 225.537 57.0852 225.355 57.331C225.173 57.5767 224.959 57.7611 224.713 57.884C224.472 58.0068 224.179 58.0683 223.833 58.0683C223.573 58.0683 223.284 58.0205 222.966 57.9249V57.3378C223.23 57.4106 223.514 57.447 223.819 57.447C224.051 57.447 224.256 57.3924 224.434 57.2832C224.611 57.174 224.77 57.0033 224.911 56.7712C225.057 56.5436 225.223 56.1795 225.41 55.6789C225.601 55.1828 225.724 54.8597 225.778 54.7095L222.939 47.2887Z" fill="white"/>
</svg>
