<svg width="706" height="469" viewBox="0 0 706 469" fill="none" xmlns="http://www.w3.org/2000/svg">
<path d="M527.07 122.26H43.2462V467.855H527.07V122.26Z" fill="#CACFD2"/>
<path d="M527.07 92.9393H43.2462V133.535H527.07V92.9393Z" fill="#8A9296"/>
<path d="M490.173 154.457H74.9204V428.68H490.173V154.457Z" fill="white"/>
<path d="M321.081 183.368H285.082V191.976H321.081V183.368Z" fill="#CACFD2"/>
<path d="M370.841 183.368H325.965V191.976H370.841V183.368Z" fill="#CACFD2"/>
<path d="M396.43 183.368H380.052V191.976H396.43V183.368Z" fill="#CACFD2"/>
<path d="M298.049 196.993H285.082V205.598H298.049V196.993Z" fill="#CACFD2"/>
<path d="M342.411 196.993H304.704V205.598H342.411V196.993Z" fill="#CACFD2"/>
<path d="M170.742 258.539H94.2621V266.335H170.742V258.539Z" fill="#CACFD2"/>
<path d="M170.742 172.644H94.2621V242.788H170.742V172.644Z" fill="#CACFD2"/>
<path d="M170.742 280.422H94.2621V288.215H170.742V280.422Z" fill="#CACFD2"/>
<path d="M170.742 302.305H94.2621V310.098H170.742V302.305Z" fill="#CACFD2"/>
<path d="M170.742 324.185H94.2621V331.981H170.742V324.185Z" fill="#CACFD2"/>
<path d="M170.742 346.068H94.2621V353.861H170.742V346.068Z" fill="#CACFD2"/>
<path d="M170.742 367.949H94.2621V375.744H170.742V367.949Z" fill="#CACFD2"/>
<path d="M506.842 125.58C509.237 125.58 511.178 123.639 511.178 121.244C511.178 118.85 509.237 116.909 506.842 116.909C504.448 116.909 502.507 118.85 502.507 121.244C502.507 123.639 504.448 125.58 506.842 125.58Z" fill="white"/>
<path d="M489.504 125.58C491.898 125.58 493.839 123.639 493.839 121.244C493.839 118.85 491.898 116.909 489.504 116.909C487.11 116.909 485.168 118.85 485.168 121.244C485.168 123.639 487.11 125.58 489.504 125.58Z" fill="white"/>
<path d="M158.532 181.176H106.474V189.952H158.532V181.176Z" fill="white"/>
<path d="M158.532 195.768H106.474V204.543H158.532V195.768Z" fill="white"/>
<path d="M158.532 210.359H106.474V219.134H158.532V210.359Z" fill="white"/>
<path d="M158.532 224.95H106.474V233.726H158.532V224.95Z" fill="white"/>
<path d="M237.95 216.324C250.012 216.324 259.791 206.545 259.791 194.483C259.791 182.42 250.012 172.642 237.95 172.642C225.887 172.642 216.108 182.42 216.108 194.483C216.108 206.545 225.887 216.324 237.95 216.324Z" fill="#D5DBE0"/>
<path d="M456.36 200.385C459.619 200.385 462.262 197.743 462.262 194.483C462.262 191.223 459.619 188.58 456.36 188.58C453.1 188.58 450.457 191.223 450.457 194.483C450.457 197.743 453.1 200.385 456.36 200.385Z" fill="#D5DBE0"/>
<path d="M456.359 183.14C450.097 183.14 445.017 188.218 445.017 194.483C445.017 200.748 450.094 205.828 456.359 205.828C462.625 205.828 467.702 200.748 467.702 194.483C467.702 188.218 462.625 183.14 456.359 183.14ZM456.359 203.806C451.209 203.806 447.038 199.63 447.038 194.483C447.038 189.335 451.212 185.162 456.359 185.162C461.507 185.162 465.683 189.338 465.683 194.483C465.685 199.633 461.509 203.806 456.359 203.806Z" fill="#D5DBE0"/>
<path d="M471.891 227.583H215.949V407.787H471.891V227.583Z" fill="#D5DBE0"/>
<path d="M501.771 148.034C501.402 145.971 524.926 141.1 529.089 141.795C538.684 143.404 544.322 195.088 543.152 213.725C542.706 220.8 529.606 232.349 524.105 210.753C519.621 193.151 503.797 159.4 501.771 148.034Z" fill="#FCD2C5"/>
<path d="M529.089 141.795C535.49 142.868 544.983 165.36 547.012 186.332C544.753 187.136 537.616 188.763 535.281 189.374C529.556 190.871 521.355 192.367 515.492 192.902C510.943 175.744 503.202 156.06 501.771 148.034C501.402 145.971 524.926 141.1 529.089 141.795Z" fill="white"/>
<path d="M529.742 207.447C530.311 207.071 531.061 206.739 531.92 206.509C535.707 205.493 541.56 206.46 542.845 214.289C544.247 222.835 498.248 251.707 478.71 261.098C477.731 258.552 475.832 255.514 473.278 252.072C485.266 246.601 519.337 214.352 529.742 207.447Z" fill="#FCD2C5"/>
<path d="M404.871 264.71L407.501 241.934L467.563 248.863C473.792 249.581 478.258 255.214 477.537 261.44L477.511 261.667C476.793 267.896 471.16 272.362 464.934 271.641L404.871 264.71Z" fill="white"/>
<path d="M404.871 264.71L407.501 241.934L467.563 248.863C473.792 249.581 478.258 255.214 477.537 261.44L477.511 261.667C476.793 267.896 471.16 272.362 464.934 271.641L404.871 264.71Z" fill="white"/>
<path d="M427.459 276.982L432.296 235.096L542.748 247.841C554.202 249.163 562.413 259.518 561.089 270.97L561.04 271.388C559.718 282.84 549.363 291.051 537.914 289.727L427.459 276.982Z" fill="url(#paint0_linear)"/>
<path d="M404.871 264.71L407.501 241.934L467.563 248.863C473.792 249.581 478.258 255.214 477.537 261.44L477.511 261.667C476.793 267.896 471.16 272.362 464.934 271.641L404.871 264.71Z" fill="white"/>
<path d="M427.459 276.982L432.296 235.096L542.748 247.841C554.202 249.163 562.413 259.518 561.089 270.97L561.04 271.388C559.718 282.84 549.363 291.051 537.914 289.727L427.459 276.982Z" fill="url(#paint1_linear)"/>
<path d="M427.459 276.982L432.296 235.096L542.748 247.841C554.202 249.163 562.413 259.518 561.089 270.97L561.04 271.388C559.718 282.84 549.363 291.051 537.914 289.727L427.459 276.982Z" fill="url(#paint2_linear)"/>
<path d="M331.732 153.104C310.214 150.594 288.54 155.799 270.679 167.682C268.642 169.074 266.587 170.503 264.641 172.07C245.55 187.168 233.476 208.915 230.676 233.125C227.882 257.282 234.597 281.059 249.684 300.017C265.665 320.286 288.95 331.983 313.189 334.146C333.21 335.951 353.876 331.218 371.601 319.419C373.625 318.04 375.675 316.546 377.564 315.026C387.386 307.298 395.349 297.886 401.251 287.04C402.194 285.279 403.098 283.462 403.91 281.649C406.25 276.541 408.096 271.213 409.483 265.708C410.402 261.853 411.126 257.928 411.604 253.979C412.043 250.147 412.257 246.295 412.186 242.508C412.042 222.237 405.263 203.065 392.648 187.087C377.54 167.99 355.939 155.93 331.732 153.104ZM398.822 242.66C398.882 245.888 398.7 249.179 398.329 252.446C397.921 255.817 397.302 259.165 396.519 262.454C395.336 267.149 393.761 271.693 391.766 276.055C391.074 277.601 390.303 279.152 389.499 280.654C384.464 289.907 377.668 297.938 369.29 304.532C367.678 305.83 365.929 307.102 364.202 308.28C349.078 318.345 331.447 322.383 314.364 320.845C293.685 319.001 273.818 309.019 260.183 291.727C247.308 275.551 241.58 255.266 243.965 234.652C246.354 214 256.655 195.444 272.943 182.563C274.602 181.226 276.357 180.006 278.096 178.821C293.333 168.68 311.826 164.242 330.186 166.381C350.836 168.792 369.264 179.079 382.155 195.381C392.915 209.009 398.702 225.365 398.822 242.66Z" fill="url(#paint3_linear)"/>
<path d="M358.342 205.836H281.863C276.504 205.836 272.158 210.179 272.158 215.538V258.176C272.158 263.535 276.504 267.881 281.863 267.881H322.923V291.777L346.352 267.881H358.345C363.704 267.881 368.05 263.535 368.05 258.176V215.538C368.047 210.179 363.701 205.836 358.342 205.836Z" fill="#85BEFE"/>
<path d="M282.622 211.004C283.236 211.79 288.543 209.304 289.086 208.476C289.794 206.097 289.765 205.402 289.381 203.558C288.258 205.29 286.66 206.825 285.09 208.183C283.604 209.476 281.567 209.878 282.622 211.004Z" fill="#FCD2C5"/>
<path d="M289.232 203.579C287.79 209.706 285.889 211.84 286.163 214.537C286.278 215.634 296.837 218.241 298.054 213.226C298.125 212.926 298.731 209.565 299.577 205.744C297.252 204.678 289.308 203.469 289.232 203.579Z" fill="#FCD2C5"/>
<path d="M213.071 100.03C221.259 108.175 253.586 126.734 267.359 138.575C284.257 153.104 288.357 136.125 284.662 130.077C274.925 114.143 240.645 75.0545 231.862 79.2436C228.054 81.0587 211.588 98.5515 213.071 100.03Z" fill="#FCD2C5"/>
<path d="M270.128 134.138C270.005 135.018 270.021 135.838 270.146 136.509C272.452 148.784 288.887 192.722 289.256 205.893C293.424 204.88 296.848 205.658 299.577 205.744C300.541 198.648 289.966 129.142 281.549 127.105C273.839 125.237 270.669 130.252 270.128 134.138Z" fill="#FCD2C5"/>
<path d="M302.251 199.244C301.089 180.696 293.876 137.609 286.059 125.666C278.117 113.161 240.319 65.5429 228.765 71.2598C224.9 73.1794 207.073 100.502 207.731 101.134C211.956 105.219 267.927 139.484 269.057 140.239C270.543 145.269 272.779 151.965 275.137 159.032C280.293 174.464 286.707 193.673 287.026 201.108L302.251 199.244Z" fill="#5836E5"/>
<path d="M214.876 298.176C214.416 301.195 196.268 452.704 196.268 452.704C192.343 455.525 186.464 454.543 186.383 454.235C186.383 454.235 182.554 298.207 183.505 291.244C187.313 294.579 212.212 300.49 214.876 298.176Z" fill="#FCD2C5"/>
<path d="M187.07 452.119L195.487 448.116C195.487 448.116 197.065 450.84 198.378 452.615C200.914 456.042 213.913 459.226 213.62 463.838C213.471 466.167 208.444 467.946 204.438 467.852C200.431 467.758 197.201 466.833 194.889 465.914C192.586 464.992 187.344 462.461 186.582 460.97C185.252 458.385 186.61 455.569 186.61 455.569C186.352 452.971 187.07 452.119 187.07 452.119Z" fill="#5836E5"/>
<path d="M228.29 438.923L219.366 441.607C219.366 441.607 220.026 444.687 220.243 446.886C220.661 451.127 213.171 462.216 216.485 465.436C218.159 467.063 223.079 465.005 225.984 462.245C228.888 459.484 231.17 456.815 231.758 454.397C232.489 451.385 235.033 446.773 234.597 445.157C233.845 442.349 230.948 441.174 230.948 441.174C229.392 439.071 228.29 438.923 228.29 438.923Z" fill="#5836E5"/>
<path d="M220.243 446.886C220.243 446.886 223.429 447.682 226.799 446.653C228.702 446.071 230.946 441.171 230.946 441.171C229.395 439.069 228.266 437.724 228.266 437.724L218.836 441.461C218.833 441.459 219.818 443.587 220.243 446.886Z" fill="#FCD2C5"/>
<path d="M140.034 194.114C146.673 196.645 172.251 197.799 191.787 195.556C197.425 229.795 192.168 289.521 189.911 336.705C188.911 357.612 230.371 440.419 230.371 440.419C226.608 445 219.747 444.177 219.616 443.752C219.616 443.752 158.347 370.994 154.479 338.361C146.396 270.168 139.543 199.612 140.034 194.114Z" fill="#CE61D4"/>
<path d="M198.378 452.615C198.378 452.615 196.553 455.347 193.367 456.844C191.567 457.692 186.61 455.569 186.61 455.569C186.349 452.971 186.281 451.216 186.281 451.216L195.78 447.651C195.78 447.651 196.477 449.886 198.378 452.615Z" fill="#FCD2C5"/>
<path d="M237.934 183.84C231.259 186.274 202.651 187.369 183.15 184.838C183.15 184.838 176.986 284.875 180.807 333.54C185.231 389.915 185.62 449.388 185.62 449.388C189.318 454.023 197.498 450.226 197.634 449.803C197.634 449.803 238.726 194.355 237.934 183.84Z" fill="#CE61D4"/>
<path d="M140.392 175.052C140.392 175.052 138.477 195.807 138.477 213.77C138.477 213.77 157.041 221.364 178.739 221.333L184.795 203.433C184.795 203.433 193.16 221.547 196.336 221.623C214.189 222.059 232.335 220.119 244.531 212.749L237.793 185.632L140.392 175.052Z" fill="url(#paint4_linear)"/>
<path d="M194.356 35.1121C195.686 36.1646 209.546 44.5244 213.607 44.0596C213.534 45.1773 210.387 56.9193 212.771 63.3753C211.431 69.2567 195.025 68.7057 190.865 58.5177C192.849 55.7232 194.957 40.5991 194.356 35.1121Z" fill="#FCD2C5"/>
<path d="M151.82 86.5772C155.135 76.1071 161.371 64.9162 174.066 62.349C178.295 61.4949 190.867 58.5176 190.867 58.5176C190.867 58.5176 199.413 66.4936 205.231 67.1256C209.224 67.5591 212.774 63.3753 212.774 63.3753C212.774 63.3753 227.012 68.2669 229.577 69.8809C239.517 76.1384 241.28 86.2533 239.624 94.3573C233.845 122.613 246.535 188.669 237.963 192.378C226.804 197.207 164.367 200.38 140.426 184.603C138.428 183.284 137.386 180.944 137.608 178.562C138.958 164.057 144.354 110.171 151.82 86.5772Z" fill="#5836E5"/>
<path d="M24.7087 94.9606C22.6873 93.7671 20.4335 92.6728 18.1431 91.7274C15.4401 90.5835 9.12505 88.7083 8.68107 88.5803C7.37525 88.2695 4.20475 87.076 3.14965 87.1361C2.47584 87.1779 0.692092 88.0502 0.235053 88.7422C-0.373461 89.6615 0.391746 90.6148 0.391746 90.6148C-0.618963 91.6308 2.37394 93.6338 2.0736 93.8271C0.83829 94.6184 1.54864 96.5459 6.52906 97.8961C6.82679 97.9797 18.4043 103.715 22.2539 105.24C23.3847 102.944 24.8158 95.0363 24.7087 94.9606Z" fill="#FCD2C5"/>
<path d="M152.755 73.4745C141.818 77.1778 110.81 97.8674 94.0741 104.932C73.544 113.597 86.9209 124.825 93.9828 124.208C112.583 122.581 162.847 109.283 163.003 99.5544C163.069 95.3366 154.738 72.8033 152.755 73.4745Z" fill="#FCD2C5"/>
<path d="M96.8137 109.385C96.0824 108.886 95.3407 108.531 94.6852 108.345C82.6664 104.948 36.004 100.108 24.0453 94.5793C23.0972 98.7605 22.0318 102.177 20.7338 104.582C40.5875 113.284 92.4575 129.377 98.0282 122.743C103.131 116.669 100.055 111.599 96.8137 109.385Z" fill="#FCD2C5"/>
<path d="M24.2126 109.171C41.3398 116.389 83.1367 129.108 97.3075 127.421C112.04 125.875 164.359 112.628 164.38 99.7373C164.382 95.4176 172.635 62.6545 168.619 64.1222C133.51 76.9846 93.0061 105.034 91.8256 105.713C86.6598 104.804 79.6683 103.825 72.2904 102.793C56.1765 100.539 36.1191 97.7315 29.3209 94.7072L24.2126 109.171Z" fill="#5836E5"/>
<path d="M213.57 84.9711C209.347 69.3587 210.786 63.135 211.886 56.4623C213.022 49.5963 213.785 42.49 211.784 37.144C211.912 36.9533 221.737 26.0419 225.37 31.4245C227.752 38.0502 228.679 46.034 226.822 54.3286C224.111 66.4493 227.532 75.5456 229.666 79.4657C233.207 85.9896 233.565 94.9867 233.307 99.262C231.794 124.211 217.323 136.528 212.949 134.209C208.143 131.66 219.637 107.41 213.57 84.9711Z" fill="#4D3782"/>
<path d="M211.149 14.7725C218.603 14.5322 224.492 17.7497 225.887 24.8351C226.386 27.371 224.49 50.0245 212.254 53.0279C207.081 54.2972 197.558 45.1877 197.365 39.207C197.365 39.207 197.101 31.0561 197.099 30.9752C196.845 23.0436 203.142 15.0284 211.149 14.7725Z" fill="#FCD2C5"/>
<path d="M166.973 96.3422C166.464 91.4897 166.793 81.2442 172.147 73.7331C175.369 69.2175 180.47 58.7788 175.941 45.0598C171.41 31.3356 176.15 18.2172 183.808 9.53089C191.46 0.844548 202.037 -1.52158 207.769 0.88897C214.938 3.90281 214.965 7.42853 214.965 7.42853C214.965 7.42853 218.618 6.5902 222.617 8.76831C231.259 13.4745 230.616 33.0096 223.8 39.0608C228.36 18.0762 215.2 14.7437 215.2 14.7437C215.2 14.7437 206.015 15.6813 201.509 20.9908C197.412 25.8197 193.314 38.7944 195.785 48.7056C197.67 56.269 203.549 61.7273 197.362 79.5962C188.477 105.274 206.994 132.574 199.574 135.587C192.813 138.337 169.958 124.686 166.973 96.3422Z" fill="#4D3782"/>
<path d="M197.509 27.8464C198.295 27.9039 199.729 28.2983 200.786 29.1131C199.93 31.7822 197.961 36.0183 196.992 38.1128C195.101 37.439 192.972 34.2972 193.121 32.3541C193.275 30.2962 195.448 27.6923 197.509 27.8464Z" fill="#FCD2C5"/>
<path d="M648.762 302.741C649.738 305.632 693.928 451.688 693.928 451.688C698.284 453.786 703.899 451.795 703.928 451.477C703.928 451.477 680.595 297.155 678.451 290.466C675.283 294.412 651.786 304.556 648.762 302.741Z" fill="#FCD2C5"/>
<path d="M702.886 449.513L693.904 447.032C693.904 447.032 692.823 449.991 691.836 451.968C689.932 455.781 677.686 461.177 678.775 465.666C679.326 467.933 684.589 468.81 688.514 468.022C692.439 467.233 695.798 466.188 697.582 464.457C699.804 462.297 704.411 459.745 704.905 458.147C705.764 455.368 703.938 452.83 703.938 452.83C703.74 450.226 702.886 449.513 702.886 449.513Z" fill="#4D3782"/>
<path d="M693.531 446.624C693.531 446.624 693.233 448.951 691.836 451.968C691.836 451.968 694.108 454.339 697.508 455.261C699.428 455.783 703.938 452.832 703.938 452.832C703.745 450.226 703.507 448.487 703.507 448.487L693.531 446.624Z" fill="#FCD2C5"/>
<path d="M662.891 185.162C644.124 191.038 615.762 194.932 608.765 193.697C609.812 204.19 692.077 449.066 692.077 449.066C692.285 449.461 700.998 451.78 703.834 446.572C703.834 446.572 693.886 387.936 688.452 331.649C683.764 283.06 662.891 185.162 662.891 185.162Z" fill="url(#paint5_linear)"/>
<path d="M583.698 297.836C583.967 300.879 592.471 453.235 592.471 453.235C596.21 456.298 602.139 455.69 602.238 455.387C602.238 455.387 615.952 299.915 615.445 292.908C611.436 295.995 586.21 300.315 583.698 297.836Z" fill="#FCD2C5"/>
<path d="M601.692 453.232L593.547 448.703C593.547 448.703 591.799 451.323 590.374 453.01C587.623 456.267 574.45 458.622 574.45 463.245C574.45 465.577 579.358 467.672 583.359 467.831C587.36 467.993 590.648 467.277 593.009 466.502C595.367 465.731 600.76 463.535 601.614 462.096C603.103 459.599 601.927 456.703 601.927 456.703C602.353 454.128 601.692 453.232 601.692 453.232Z" fill="#4D3782"/>
<path d="M590.373 453.01C590.373 453.01 592.024 455.851 595.108 457.549C596.853 458.507 601.93 456.703 601.93 456.703C602.355 454.128 602.533 452.381 602.533 452.381L593.28 448.218C593.28 448.218 592.442 450.409 590.373 453.01Z" fill="#FCD2C5"/>
<path d="M570.54 182.435C569.083 192.879 591.292 450.252 591.292 450.252C591.402 450.683 599.323 454.99 603.309 450.599C603.309 450.599 607.466 391.271 615.455 335.29C622.355 286.964 621.326 241.135 625.15 238.123V186.906C605.528 188.191 577.048 185.287 570.54 182.435Z" fill="url(#paint6_linear)"/>
<path d="M635.691 153.091L568.193 223.041C568.193 223.041 569.478 236.24 571.131 236.316C644.845 239.659 671.909 204.781 671.026 200.811C664.602 171.947 635.691 153.091 635.691 153.091Z" fill="white"/>
<path d="M506.189 91.6517C505.886 93.3205 501.013 108.758 497.657 111.088C498.451 111.879 508.574 118.607 511.052 125.031C515.947 128.56 527.892 117.301 524.278 106.904C520.945 106.12 509.363 96.1672 506.189 91.6517Z" fill="#FCD2C5"/>
<path d="M501.392 90.3589C496.341 84.2398 488.067 82.4979 481.891 87.5958C476.14 92.3412 472.097 98.5438 475.735 104.778C477.036 107.011 493.434 122.756 504.602 116.922C509.324 114.454 510.447 101.323 506.636 96.7078C506.636 96.7104 501.447 90.419 501.392 90.3589Z" fill="#FCD2C5"/>
<path d="M568.195 101.406C556.297 95.4543 524.283 106.901 524.283 106.901C524.283 106.901 523.142 118.539 519.196 122.856C516.487 125.823 511.058 125.029 511.058 125.029C511.058 125.029 503.607 138.113 502.75 141.017C499.431 152.281 505.132 160.618 511.395 166.024C558.801 206.956 563.082 227.46 568.308 227.361C636.427 226.055 668.632 183.049 659.279 172.733C620.538 130.009 571.865 103.242 568.195 101.406Z" fill="#4D3782"/>
<path d="M513.087 244.556C513.278 245.533 517.644 245.606 518.504 245.12C520.214 243.323 519.156 242.331 521.003 240.876C519.214 241.905 517.106 242.605 515.077 243.044C513.946 243.208 512.661 243.073 513.087 244.556Z" fill="#FCD2C5"/>
<path d="M516.994 244.7C514.951 246.807 510.924 252.02 510.642 252.383C509.885 253.49 507.626 256.016 507.302 257.021C507.098 257.664 507.263 259.643 507.748 260.322C508.386 261.221 509.548 260.853 509.548 260.853C510.133 262.161 513.081 260.093 513.152 260.443C513.444 261.882 515.5 261.916 518.555 257.76C518.738 257.51 528.266 248.782 531.078 245.742C529.349 243.859 522.491 239.67 522.379 239.743C520.535 241.197 518.704 242.9 516.994 244.7Z" fill="#FCD2C5"/>
<path d="M560.465 112.532C556.302 111.848 532.794 116.791 533.168 118.852C535.231 130.218 551.162 163.913 555.698 181.506C561.267 203.083 574.33 191.492 574.756 184.415C575.868 165.776 570.065 114.109 560.465 112.532Z" fill="#FCD2C5"/>
<path d="M533.165 118.852C531.789 126.885 542.423 146.536 547.028 163.678C555.233 164.637 569.002 162.266 578.532 157.008C576.432 136.047 570.449 118.155 566.448 113.044C556.15 99.8967 534.949 108.466 533.165 118.852Z" fill="white"/>
<path d="M561.862 177.7C561.131 178.204 560.533 178.768 560.123 179.312C552.617 189.293 531.259 231.064 521.784 240.221C525.341 242.613 528.146 244.843 529.916 246.914C545.2 231.542 578.929 188.977 574.753 181.388C570.932 174.438 565.093 175.48 561.862 177.7Z" fill="#FCD2C5"/>
<path d="M491.481 73.3858C476.821 73.7018 471.768 92.8478 471.768 92.8478C464.147 103.433 479.062 115.13 485.207 113.067C473.708 104.966 477.43 95.2923 477.43 95.2923C489.866 83.169 508.488 94.0466 511.326 98.7397C511.329 98.7423 513.552 72.9053 491.481 73.3858Z" fill="#CE61D4"/>
<path d="M499.023 88.2827C498.472 88.8494 497.655 90.0873 497.401 91.3984C499.807 92.8374 504.087 94.7152 506.197 95.6449C507.169 93.8925 506.688 90.1291 505.294 88.7658C503.816 87.3242 500.465 86.8071 499.023 88.2827Z" fill="#FCD2C5"/>
<path d="M551.222 63.0855C544.774 62.6337 541.212 64.1381 529.958 53.8586C492.625 19.7426 477.488 63.3571 487.294 72.3151C489.705 74.5193 492.314 74.6787 491.883 70.359C491.154 63.0594 499.313 48.2148 513.633 76.9691C517.412 84.5559 516.937 99.4031 543.664 94.266C567.845 89.6199 558.908 105.076 563.951 108.732C576.9 118.118 583.069 65.3211 551.222 63.0855Z" fill="#CE61D4"/>
<path d="M488.378 69.9202C487.171 70.1814 486.317 70.7377 485.709 71.4036C484.199 73.0568 484.228 75.3681 484.228 75.3681C489.279 72.9863 495.79 73.5374 495.79 73.5374C494.878 70.8787 492.914 68.9356 488.378 69.9202Z" fill="#4D3782"/>
<defs>
<linearGradient id="paint0_linear" x1="427.459" y1="262.483" x2="561.229" y2="262.483" gradientUnits="userSpaceOnUse">
<stop stop-color="#9E90F2"/>
<stop offset="1" stop-color="#A1D8F6"/>
</linearGradient>
<linearGradient id="paint1_linear" x1="427.459" y1="262.483" x2="561.229" y2="262.483" gradientUnits="userSpaceOnUse">
<stop stop-color="#9E90F2"/>
<stop offset="1" stop-color="#A1D8F6"/>
</linearGradient>
<linearGradient id="paint2_linear" x1="427.459" y1="262.483" x2="561.229" y2="262.483" gradientUnits="userSpaceOnUse">
<stop stop-color="#5937E5"/>
<stop offset="1" stop-color="#C66FD7"/>
</linearGradient>
<linearGradient id="paint3_linear" x1="230.06" y1="243.502" x2="412.203" y2="243.502" gradientUnits="userSpaceOnUse">
<stop stop-color="#9E90F2"/>
<stop offset="1" stop-color="#A1D8F6"/>
</linearGradient>
<linearGradient id="paint4_linear" x1="138.476" y1="198.365" x2="244.531" y2="198.365" gradientUnits="userSpaceOnUse">
<stop stop-color="#9E90F2"/>
<stop offset="1" stop-color="#A1D8F6"/>
</linearGradient>
<linearGradient id="paint5_linear" x1="656.302" y1="449.92" x2="656.302" y2="185.161" gradientUnits="userSpaceOnUse">
<stop stop-color="#9E90F2"/>
<stop offset="1" stop-color="#A1D8F6"/>
</linearGradient>
<linearGradient id="paint6_linear" x1="597.811" y1="452.557" x2="597.811" y2="182.435" gradientUnits="userSpaceOnUse">
<stop stop-color="#9E90F2"/>
<stop offset="1" stop-color="#A1D8F6"/>
</linearGradient>
</defs>
</svg>
