<svg width="29" height="30" viewBox="0 0 29 30" fill="none" xmlns="http://www.w3.org/2000/svg">
<path d="M6.9984 26.5967C6.9984 26.1042 7.16564 25.5706 6.95659 25.2012C6.74753 24.8728 6.16218 24.7497 5.74406 24.5445C3.52807 23.3952 1.81381 21.7535 0.935779 19.455C0.559479 18.552 0.434045 17.5259 0.2668 16.5408C0.0995557 15.5558 0.0577444 14.5707 0.0159332 13.5857C-0.0676891 11.4514 0.183178 9.31705 0.643101 7.22379C0.893968 6.03351 1.52114 5.0074 2.27374 4.10443C3.44445 2.66788 4.86603 1.47759 6.66391 0.902974C7.70919 0.57462 8.79628 0.410443 9.88337 0.28731C11.3468 0.123133 12.852 0 14.3154 0C15.7787 0 17.2421 0.123133 18.7055 0.246266C19.6672 0.328354 20.6288 0.492532 21.5905 0.697753C23.2629 1.06715 24.6427 2.01117 25.8552 3.16041C27.026 4.26861 27.9876 5.58202 28.3221 7.18275C28.8238 9.52227 29.1165 11.8618 28.9075 14.2424C28.782 15.6789 28.6148 17.0744 28.3639 18.511C28.0712 20.1527 27.1514 21.4251 25.9807 22.5744C24.7682 23.8057 23.3884 24.7907 21.6323 25.1601C20.2944 25.4475 18.9146 25.5706 17.5766 25.7348C16.8658 25.8169 16.1132 25.8579 15.3606 25.8579C14.5244 25.8579 13.6464 25.8169 12.8102 25.8169C12.6011 25.8169 12.3084 25.94 12.1412 26.1042C11.1795 27.0482 10.3015 27.9922 9.38164 28.9362C8.71266 29.5929 7.79281 29.634 7.29108 28.9773C7.08202 28.69 6.9984 28.2795 6.95659 27.9512C6.95659 27.4586 6.9984 27.0482 6.9984 26.5967ZM8.16911 25.3243C8.16911 25.7348 8.16911 26.1452 8.16911 26.5556C8.16911 26.9661 8.16911 27.3765 8.16911 27.787C8.16911 27.9101 8.25274 28.0743 8.33636 28.1153C8.41998 28.1564 8.58722 28.0332 8.67085 27.9512C8.75447 27.9101 8.79628 27.828 8.8799 27.7459C10.3015 26.3094 11.6813 24.9139 13.1028 23.5184C13.2701 23.3542 13.5209 23.2311 13.7718 23.2311C15.7787 23.2311 17.7857 23.0669 19.7926 22.8206C20.9633 22.6564 22.0504 22.3691 23.0121 21.6303C24.2664 20.6453 25.4371 19.5781 25.7298 17.9774C26.0225 16.4588 26.1897 14.8991 26.2734 13.3394C26.3152 12.067 26.1479 10.7536 26.0225 9.48123C25.8971 8.12677 25.5626 6.81335 24.5591 5.70516C23.5556 4.59696 22.4267 3.57085 20.8797 3.28354C19.3745 2.99623 17.8693 2.83206 16.3223 2.74997C13.8136 2.62683 11.2631 2.70892 8.79628 3.16041C6.12036 3.6119 4.28067 5.13054 3.36083 7.59319C2.94272 8.70139 2.85909 9.93272 2.77547 11.123C2.69185 12.6416 2.73366 14.2013 2.85909 15.72C2.9009 16.6229 3.02634 17.567 3.36083 18.4289C4.11343 20.4401 5.61863 21.7535 7.62557 22.5333C8.00187 22.6975 8.16911 22.8617 8.16911 23.2721C8.1273 23.8878 8.16911 24.6266 8.16911 25.3243Z" fill="white"/>
<path d="M15.6532 16.5818C15.8205 16.4997 16.0295 16.4176 16.1968 16.2945C16.4058 16.1303 16.5312 15.884 16.7403 15.7199C17.1584 15.3094 17.6601 15.1452 18.1619 15.4326C19.0817 16.0482 20.0016 16.6639 20.8796 17.3616C21.2141 17.6079 21.3395 17.9773 21.1305 18.3877C20.6705 19.4138 20.0016 20.2347 18.8309 20.5631C18.6636 20.6041 18.4964 20.6041 18.3291 20.5631C14.4407 19.2086 11.1794 17.0743 9.00525 13.5445C8.25265 12.3542 7.70911 11.0408 7.08194 9.76844C6.74745 9.15278 6.87289 8.57816 7.24919 8.00354C7.70911 7.34683 8.29446 6.8543 9.00525 6.52595C9.42336 6.32072 9.88328 6.36177 10.176 6.73117C10.8449 7.55205 11.4721 8.41398 12.0575 9.31696C12.4756 9.97366 12.2665 10.5072 11.6812 10.9998C11.5557 11.0819 11.4721 11.1639 11.3467 11.246C10.9704 11.5333 10.8868 11.9027 11.054 12.3132C11.7648 14.2423 13.0609 15.6788 15.0679 16.4176C15.2351 16.4997 15.4023 16.4997 15.6532 16.5818Z" fill="white"/>
<path d="M21.6744 12.8058C21.6744 12.9289 21.758 13.0931 21.7162 13.2162C21.6326 13.3804 21.5071 13.6267 21.3399 13.6677C21.2145 13.7088 20.9218 13.4625 20.88 13.3394C20.7545 12.9289 20.7545 12.5185 20.7127 12.108C20.5455 9.68643 18.664 7.38795 16.2808 6.81333C15.779 6.6902 15.2355 6.64915 14.6919 6.56706C14.5665 6.56706 14.4829 6.52602 14.3574 6.52602C14.0648 6.48498 13.8557 6.40289 13.8557 6.07453C13.8975 5.70514 14.1902 5.62305 14.4829 5.62305C17.7023 5.74618 20.4619 7.55213 21.3817 10.7946C21.549 11.4513 21.6326 12.1491 21.7162 12.8058C21.7162 12.7647 21.7162 12.8058 21.6744 12.8058Z" fill="white"/>
<path d="M19.8761 12.3542C19.8343 12.4363 19.8761 12.6005 19.7925 12.6826C19.667 12.8057 19.4998 12.9699 19.3326 12.9699C19.2071 12.9699 18.9981 12.7647 18.9981 12.6415C18.8726 12.1901 18.8726 11.6565 18.7472 11.205C18.3291 9.64532 16.9911 8.57817 15.3187 8.41399C15.1515 8.41399 15.026 8.37294 14.8588 8.3319C14.6079 8.29086 14.4407 8.12668 14.4825 7.88041C14.5243 7.5931 14.7333 7.46997 14.9842 7.46997C17.4511 7.63415 19.5416 9.15278 19.8343 11.8207C19.8343 11.9438 19.8761 12.149 19.8761 12.3542Z" fill="white"/>
<path d="M15.5695 9.31714C16.9911 9.35818 18.0782 10.5485 17.9946 11.8619C17.9946 12.1492 17.8691 12.3955 17.5765 12.3544C17.4092 12.3134 17.242 12.1081 17.0747 11.944C17.0329 11.9029 17.0747 11.8208 17.0747 11.7798C16.8657 10.7126 16.573 10.4253 15.4441 10.2201C15.1514 10.1791 14.9424 10.0149 14.9424 9.72758C14.9842 9.44027 15.1932 9.31714 15.4859 9.31714C15.5695 9.31714 15.6114 9.31714 15.5695 9.31714Z" fill="white"/>
</svg>
