<svg width="170" height="170" viewBox="0 0 170 170" fill="none" xmlns="http://www.w3.org/2000/svg">
<circle cx="85" cy="85" r="84.5" stroke="#7CB1FF" stroke-dasharray="8 8"/>
<path d="M85 35C112.614 35 135 57.3859 135 85C135 112.614 112.614 135 85 135C57.3859 135 35 112.614 35 85C35 57.3859 57.3859 35 85 35Z" fill="#0062D1"/>
<path d="M135 85C135 112.614 112.614 135 85 135V35C112.614 35 135 57.3857 135 85Z" fill="#7CB1FF"/>
<path d="M85.0001 85L85.1771 85.3064L85.354 85L128.396 109.851C119.773 124.878 103.569 135 85.0001 135C66.4948 135 50.3388 124.946 41.6929 110.004L85.0001 85Z" fill="#160A9F"/>
</svg>
