<svg width="170" height="170" viewBox="0 0 170 170" fill="none" xmlns="http://www.w3.org/2000/svg">
<circle cx="85" cy="85" r="84.5" stroke="#7CB1FF" stroke-dasharray="8 8"/>
<path d="M70.6012 79.3296C71.2157 79.3214 71.8274 79.4132 72.4124 79.6013C73.0506 79.8364 73.6487 80.1685 74.1854 80.5859C74.4497 80.7778 74.7658 80.8858 75.0924 80.8957C75.2183 80.8951 75.3424 80.8646 75.4543 80.8069C75.5663 80.7492 75.6629 80.6658 75.7364 80.5636C75.9163 80.3297 76.0092 80.0405 75.9993 79.7457C76.0049 79.541 75.9668 79.3374 75.8876 79.1484C75.7962 78.9636 75.6608 78.804 75.4932 78.6837C74.8157 78.1311 74.0423 77.7075 73.2115 77.434C72.3261 77.141 71.3985 76.9951 70.4658 77.0021C69.0843 76.9702 67.7192 77.3064 66.5109 77.9761C65.3855 78.621 64.4791 79.5875 63.9084 80.7513C63.3096 82.0856 63 83.5313 63 84.9935C63 86.4557 63.3096 87.9014 63.9084 89.2356C64.476 90.4049 65.3828 91.3765 66.5109 92.0239C67.7194 92.693 69.0843 93.0292 70.4658 92.998C71.3985 93.0043 72.3259 92.8584 73.2115 92.5661C74.0421 92.2921 74.8154 91.8685 75.4932 91.3164C75.6627 91.1931 75.7983 91.0292 75.8876 90.8398C75.9647 90.6544 76.0027 90.4551 75.9993 90.2543C76.009 89.9592 75.9161 89.6697 75.7364 89.4352C75.6627 89.3332 75.566 89.25 75.4541 89.1923C75.3422 89.1346 75.2183 89.104 75.0924 89.1031C74.9334 89.1026 74.7758 89.1329 74.6284 89.1923C74.4752 89.2541 74.3271 89.3279 74.1854 89.4129C73.6183 89.8112 73.0043 90.1384 72.3572 90.3869C71.791 90.5832 71.1952 90.6805 70.5959 90.6744C69.9424 90.7181 69.2876 90.6106 68.6826 90.3601C68.0775 90.1096 67.5385 89.723 67.1076 89.2304C66.234 87.9938 65.8161 86.4932 65.9247 84.9836C65.8179 83.4808 66.236 81.9875 67.1076 80.7579C67.5408 80.2676 68.0814 79.8837 68.6873 79.636C69.2932 79.3883 69.9481 79.2834 70.6012 79.3296Z" fill="#3A2C60"/>
<path d="M91.6425 77.0015C91.3591 77.0149 91.0858 77.1132 90.8566 77.2841C90.6273 77.4549 90.4523 77.6909 90.3532 77.9626L85.5215 87.4133L80.6691 77.9626C80.5644 77.6861 80.3821 77.4473 80.1451 77.2763C79.9081 77.1053 79.6269 77.0097 79.337 77.0015C79.157 76.9927 78.9772 77.023 78.8095 77.0904C78.6418 77.1578 78.49 77.2608 78.3641 77.3925C78.115 77.6772 77.9851 78.0504 78.0022 78.4319V91.6581C77.982 92.0168 78.0997 92.3693 78.3304 92.6404C78.4463 92.7618 78.5862 92.8565 78.7408 92.9182C78.8953 92.9799 79.061 93.0072 79.2267 92.9984C79.3949 93.0061 79.5629 92.9772 79.7194 92.9137C79.8759 92.8501 80.0174 92.7534 80.1347 92.6298C80.3676 92.3637 80.4892 92.0148 80.4732 91.6581V82.5653L84.2101 89.6471C84.3412 89.9347 84.5362 90.1872 84.7796 90.3841C84.9905 90.5353 85.2432 90.6138 85.5008 90.6082C85.7598 90.6131 86.0133 90.5306 86.2219 90.3735C86.4591 90.1749 86.6527 89.9273 86.7901 89.6471L90.5063 82.4487V91.6541C90.486 92.0128 90.6038 92.3654 90.8344 92.6365C90.9502 92.7576 91.0899 92.8522 91.2442 92.9139C91.3985 92.9756 91.5639 93.0031 91.7294 92.9944C91.8983 93.002 92.0669 92.9742 92.2249 92.9126C92.3828 92.851 92.5267 92.7571 92.6478 92.6365C92.7682 92.5055 92.8614 92.3509 92.9216 92.1821C92.9818 92.0132 93.0078 91.8336 92.998 91.6541V78.4319C93.0068 78.2421 92.9786 78.0525 92.9149 77.874C92.8512 77.6956 92.7533 77.5319 92.627 77.3925C92.4982 77.2614 92.3443 77.159 92.1748 77.0917C92.0054 77.0244 91.8241 76.9937 91.6425 77.0015Z" fill="#3A2C60"/>
<path d="M98.2157 77.6082C97.3757 77.9652 96.6469 78.5504 96.1083 79.3008C95.6065 80.0161 95.3414 80.8769 95.3515 81.7575C95.3204 82.5351 95.533 83.3026 95.9582 83.9477C96.424 84.5742 97.0436 85.063 97.754 85.3645C98.7486 85.7982 99.7846 86.1247 100.845 86.3388C101.752 86.5098 102.634 86.803 103.466 87.2107C103.704 87.3272 103.905 87.5109 104.045 87.7403C104.184 87.9696 104.257 88.2351 104.255 88.5054C104.269 88.832 104.199 89.1569 104.051 89.4467C103.903 89.7365 103.682 89.9808 103.412 90.1546C102.674 90.5754 101.833 90.7713 100.99 90.7192C100.231 90.7278 99.4741 90.623 98.7442 90.408C98.0448 90.1924 97.3867 89.8558 96.7984 89.4127C96.5356 89.2295 96.2294 89.1224 95.9121 89.1028C95.7865 89.1048 95.6631 89.1368 95.5517 89.1963C95.4404 89.2558 95.3441 89.3412 95.2707 89.4455C95.0913 89.6746 94.996 89.9608 95.0014 90.2544C94.9918 90.4596 95.0322 90.6641 95.1188 90.8495C95.2054 91.0349 95.3356 91.1954 95.4978 91.3166C96.2151 91.883 97.0339 92.3001 97.9079 92.5443C98.9291 92.8517 99.9886 93.0048 101.053 92.9987C102.115 93.0184 103.171 92.8188 104.156 92.4117C104.989 92.0736 105.714 91.5071 106.253 90.7743C106.751 90.07 107.012 89.2196 106.998 88.3504C107.023 87.596 106.797 86.8552 106.357 86.2495C105.866 85.6397 105.234 85.1646 104.519 84.8668C103.51 84.4387 102.465 84.1089 101.395 83.882C100.5 83.7166 99.6345 83.4105 98.8301 82.9747C98.5924 82.8343 98.3964 82.6303 98.2632 82.3847C98.1299 82.1391 98.0643 81.8611 98.0734 81.5802C98.0623 81.247 98.1349 80.9164 98.2843 80.6201C98.4336 80.3238 98.6547 80.0716 98.9263 79.8877C99.6227 79.4467 100.434 79.2346 101.252 79.2798C101.945 79.261 102.636 79.3695 103.293 79.6001C103.906 79.8475 104.484 80.1788 105.011 80.5849C105.166 80.6805 105.33 80.7618 105.499 80.8279C105.627 80.8737 105.763 80.8963 105.899 80.8948C106.025 80.8931 106.148 80.8611 106.259 80.8016C106.371 80.7421 106.467 80.6566 106.54 80.5521C106.72 80.3238 106.816 80.0379 106.811 79.7446C106.817 79.542 106.777 79.3407 106.692 79.1576C106.588 78.9745 106.452 78.8132 106.29 78.6823C105.145 77.8139 103.803 77.2594 102.39 77.0714C100.977 76.8834 99.5406 77.0682 98.217 77.6082H98.2157Z" fill="#3A2C60"/>
<path d="M132.078 76.8324H125.018C123.977 71.7115 121.958 66.8395 119.072 62.4838L124.072 57.4838C124.619 56.9357 124.927 56.1925 124.927 55.4176C124.927 54.6427 124.619 53.8995 124.072 53.3514L116.653 45.9338C116.382 45.6623 116.06 45.4469 115.705 45.2999C115.351 45.1529 114.971 45.0773 114.587 45.0773C114.203 45.0773 113.824 45.1529 113.469 45.2999C113.115 45.4469 112.793 45.6623 112.522 45.9338L107.522 50.9338C103.167 48.0445 98.2953 46.0233 93.1743 44.9811V37.9216C93.1743 37.1468 92.8665 36.4036 92.3186 35.8557C91.7707 35.3078 91.0276 35 90.2527 35H79.7541C78.9792 35 78.2361 35.3078 77.6881 35.8557C77.1402 36.4036 76.8324 37.1468 76.8324 37.9216V44.9811C71.7115 46.0235 66.8399 48.0447 62.4851 50.9338L57.4851 45.9338C57.2139 45.6622 56.8918 45.4468 56.5373 45.2998C56.1828 45.1528 55.8027 45.0772 55.4189 45.0772C55.0351 45.0772 54.6551 45.1528 54.3005 45.2998C53.946 45.4468 53.6239 45.6622 53.3527 45.9338L45.9338 53.3514C45.386 53.8995 45.0783 54.6427 45.0783 55.4176C45.0783 56.1925 45.386 56.9357 45.9338 57.4838L50.9338 62.4838C48.0442 66.8388 46.0229 71.7109 44.9811 76.8324H37.9216C37.1468 76.8324 36.4036 77.1402 35.8557 77.6882C35.3078 78.2361 35 78.9792 35 79.7541V90.2446C35 91.0195 35.3078 91.7626 35.8557 92.3105C36.4036 92.8584 37.1468 93.1662 37.9216 93.1662H44.9824C46.0243 98.2878 48.0455 103.16 50.9351 107.515L45.9351 112.515C45.3874 113.063 45.0797 113.806 45.0797 114.581C45.0797 115.356 45.3874 116.099 45.9351 116.647L53.3541 124.065C53.6253 124.336 53.9474 124.552 54.3019 124.699C54.6564 124.846 55.0365 124.921 55.4203 124.921C55.8041 124.921 56.1841 124.846 56.5386 124.699C56.8932 124.552 57.2153 124.336 57.4865 124.065L62.4865 119.065C66.8418 121.952 71.7133 123.97 76.8338 125.011V132.078C76.8338 132.462 76.9093 132.842 77.0562 133.196C77.203 133.551 77.4182 133.873 77.6895 134.144C77.9608 134.416 78.2829 134.631 78.6373 134.778C78.9918 134.924 79.3717 135 79.7554 135H90.2473C90.631 135 91.0109 134.924 91.3654 134.778C91.7198 134.631 92.0419 134.416 92.3132 134.144C92.5845 133.873 92.7997 133.551 92.9465 133.196C93.0933 132.842 93.1689 132.462 93.1689 132.078V125.018C98.2895 123.977 103.161 121.959 107.516 119.072L112.516 124.072C112.787 124.343 113.109 124.559 113.464 124.705C113.818 124.852 114.198 124.928 114.582 124.928C114.965 124.928 115.345 124.852 115.7 124.705C116.054 124.559 116.376 124.343 116.647 124.072L124.066 116.654C124.614 116.106 124.922 115.363 124.922 114.588C124.922 113.813 124.614 113.07 124.066 112.522L119.066 107.522C121.953 103.166 123.972 98.2939 125.012 93.173H132.073C132.458 93.1737 132.839 93.0984 133.194 92.9515C133.55 92.8046 133.873 92.5889 134.145 92.3168C134.417 92.0447 134.632 91.7216 134.779 91.366C134.926 91.0104 135.001 90.6293 135 90.2446V79.7541C135 79.3704 134.924 78.9905 134.778 78.636C134.631 78.2815 134.416 77.9595 134.144 77.6882C133.873 77.4169 133.551 77.2017 133.196 77.0548C132.842 76.908 132.462 76.8324 132.078 76.8324ZM85 114.018C79.2605 114.018 73.6498 112.316 68.8774 109.128C64.1051 105.939 60.3855 101.407 58.1889 96.1043C55.9924 90.8018 55.4176 84.9669 56.5373 79.3377C57.6569 73.7084 60.4207 68.5376 64.4792 64.4792C68.5376 60.4207 73.7084 57.6569 79.3377 56.5373C84.9669 55.4176 90.8018 55.9924 96.1043 58.1889C101.407 60.3855 105.939 64.1051 109.128 68.8774C112.316 73.6498 114.018 79.2605 114.018 85C114.018 92.6959 110.96 100.077 105.519 105.519C100.077 110.96 92.6959 114.018 85 114.018Z" fill="#0062D1"/>
</svg>
