<svg width="170" height="170" viewBox="0 0 170 170" fill="none" xmlns="http://www.w3.org/2000/svg">
<circle cx="85" cy="85" r="84.5" stroke="#7CB1FF" stroke-dasharray="8 8"/>
<g clip-path="url(#clip0)">
<path d="M130.292 122.3C130.302 124.058 129.936 125.797 129.221 127.403C128.506 129.009 127.457 130.445 126.144 131.616C124.831 132.787 123.283 133.665 121.604 134.194C119.925 134.722 118.153 134.888 116.405 134.681C110.04 133.741 105.377 128.212 105.532 121.792V47.9737C105.378 41.5462 110.053 36.0145 116.426 35.0846C118.172 34.8805 119.942 35.0489 121.619 35.5787C123.296 36.1085 124.84 36.9876 126.151 38.1579C127.462 39.3282 128.509 40.763 129.223 42.3674C129.937 43.9719 130.301 45.7093 130.292 47.4649V122.3Z" fill="#7CB1FF"/>
<path d="M52.3801 110.068C59.2176 110.068 64.7603 115.602 64.7603 122.428C64.7603 129.254 59.2176 134.787 52.3801 134.787C45.5427 134.787 40 129.254 40 122.428C40 115.602 45.5427 110.068 52.3801 110.068ZM84.9548 72.6078C78.0853 72.9839 72.7549 78.7367 72.9147 85.6036V118.803C72.9147 127.812 76.8857 133.282 82.7039 134.448C84.5077 134.813 86.3703 134.773 88.1565 134.33C89.9427 133.887 91.6078 133.053 93.031 131.888C94.4542 130.723 95.5998 129.256 96.3846 127.594C97.1695 125.932 97.574 124.116 97.5688 122.279V85.0314C97.5718 83.3848 97.2463 81.754 96.6114 80.2343C95.9764 78.7146 95.0446 77.3363 93.8705 76.1799C92.6963 75.0235 91.3032 74.1121 89.7725 73.4988C88.2417 72.8856 86.604 72.5828 84.9548 72.6082V72.6078Z" fill="#0062D1"/>
</g>
<defs>
<clipPath id="clip0">
<rect width="90.2913" height="100" fill="white" transform="translate(40 35)"/>
</clipPath>
</defs>
</svg>
