<svg width="41" height="41" viewBox="0 0 41 41" fill="none" xmlns="http://www.w3.org/2000/svg">
<path d="M0.240601 40.0867L3.06626 29.3289C1.48389 26.3847 0.57968 23.1008 0.57968 19.8168C0.57968 8.83265 9.50877 0 20.3593 0C31.2099 0 40.139 8.83265 40.139 19.8168C40.139 30.6878 31.3229 39.6337 20.3593 39.6337C17.0815 39.6337 13.9168 38.841 10.9781 37.2557L0.240601 40.0867ZM11.5432 33.1791L12.2214 33.632C14.708 35.1041 17.5337 35.8968 20.3593 35.8968C29.1754 35.8968 36.4091 28.6495 36.4091 19.8168C36.4091 10.9842 29.1754 3.73689 20.3593 3.73689C11.5432 3.73689 4.30955 10.9842 4.30955 19.8168C4.30955 22.7611 5.10074 25.592 6.68311 28.0833L7.13522 28.7627L5.55285 34.7644L11.5432 33.1791Z" fill="white"/>
<path fill-rule="evenodd" clip-rule="evenodd" d="M27.7058 22.5345C26.9146 22.0816 25.7843 21.5154 24.8801 21.8551C24.0889 22.1948 23.6368 23.3272 23.1847 23.8934C22.9587 24.2331 22.6196 24.2331 22.2805 24.1199C19.5679 22.9875 17.4204 21.1756 15.838 18.6844C15.612 18.3447 15.612 18.005 15.951 17.6652C16.4031 17.099 16.9683 16.5328 17.0813 15.7402C17.1943 15.0607 16.8553 14.1548 16.5162 13.4754C16.1771 12.6827 15.725 11.4371 14.8208 10.9841C14.0296 10.5312 13.0124 10.7576 12.3342 11.3238C11.2039 12.2298 10.6388 13.8151 10.6388 15.2872C10.6388 15.7402 10.7518 16.0799 10.7518 16.5328C10.9779 17.552 11.43 18.4579 11.9951 19.2506C12.3342 19.93 12.7863 20.4962 13.2384 21.1756C14.7077 23.214 16.5162 24.9125 18.6637 26.2714C19.6809 26.9508 20.9242 27.517 22.0545 27.8568C23.4108 28.3097 24.5411 28.7627 26.0104 28.5362C27.4797 28.1965 28.9491 27.2906 29.6272 25.8184C29.8533 25.3655 29.8533 24.9125 29.7403 24.4596C29.7403 23.5537 28.497 22.9875 27.7058 22.5345Z" fill="white"/>
</svg>
